<svg id="Layer_1" data-name="Layer 1" xmlns="http://www.w3.org/2000/svg" xmlns:xlink="http://www.w3.org/1999/xlink" viewBox="0 0 421.11 172.46"><defs><style>.cls-1,.cls-2{fill:none;}.cls-2{clip-rule:evenodd;}.cls-3{clip-path:url(#clip-path);}.cls-4{fill:#f7c980;}.cls-5{fill:#f6c880;}.cls-6{fill:#f6c87f;}.cls-7{fill:#f5c87f;}.cls-8{fill:#f5c77f;}.cls-333,.cls-9{fill:#f5c77e;}.cls-10{fill:#f4c77e;}.cls-11{fill:#f4c67e;}.cls-12{fill:#f3c67d;}.cls-13{fill:#f3c57d;}.cls-14{fill:#f2c57d;}.cls-15{fill:#f2c47c;}.cls-16{fill:#f1c47c;}.cls-17{fill:#f1c37c;}.cls-18{fill:#f0c37b;}.cls-19{fill:#efc37b;}.cls-20{fill:#efc27b;}.cls-21{fill:#eec27a;}.cls-22{fill:#eec17a;}.cls-23{fill:#edc17a;}.cls-24{fill:#edc079;}.cls-25{fill:#ecc079;}.cls-26{fill:#ecbf78;}.cls-27{fill:#ebbf78;}.cls-28{fill:#ebbe78;}.cls-29{fill:#eabe78;}.cls-30,.cls-313{fill:#eabe77;}.cls-31{fill:#e9bd77;}.cls-310,.cls-32{fill:#e9bd76;}.cls-33{fill:#e8bc76;}.cls-34{fill:#e7bb76;}.cls-35{fill:#e7bb75;}.cls-36{fill:#e6bb75;}.cls-37{fill:#e6ba75;}.cls-38{fill:#e6ba74;}.cls-39{fill:#e5ba74;}.cls-40{fill:#e5b974;}.cls-301,.cls-41{fill:#e4b973;}.cls-42{fill:#e4b873;}.cls-43{fill:#e3b873;}.cls-44{fill:#e3b772;}.cls-45{fill:#e2b772;}.cls-46{fill:#e2b672;}.cls-296,.cls-47{fill:#e1b671;}.cls-48{fill:#e0b671;}.cls-49{fill:#e0b571;}.cls-292,.cls-50{fill:#dfb570;}.cls-51{fill:#dfb470;}.cls-52{fill:#deb470;}.cls-289,.cls-53{fill:#deb46f;}.cls-54{fill:#deb36f;}.cls-55{fill:#ddb36f;}.cls-56{fill:#ddb26e;}.cls-57{fill:#dcb26e;}.cls-58{fill:#dcb16e;}.cls-59{fill:#dbb16e;}.cls-285,.cls-60{fill:#dbb16d;}.cls-61{fill:#dab06d;}.cls-282,.cls-62{fill:#dab06c;}.cls-63{fill:#d9af6c;}.cls-64{fill:#d8af6c;}.cls-65{fill:#d8ae6b;}.cls-66{fill:#d7ae6b;}.cls-67{fill:#d7ad6b;}.cls-68{fill:#d7ad6a;}.cls-276,.cls-69{fill:#d6ad6a;}.cls-70{fill:#d6ac6a;}.cls-273,.cls-71{fill:#d5ac69;}.cls-72{fill:#d5ab69;}.cls-73{fill:#d4ab69;}.cls-74{fill:#d4aa68;}.cls-270,.cls-75{fill:#d3aa68;}.cls-76{fill:#d2aa68;}.cls-267,.cls-77{fill:#d2a967;}.cls-78{fill:#d1a967;}.cls-79{fill:#d1a867;}.cls-264,.cls-80{fill:#d0a866;}.cls-81{fill:#d0a766;}.cls-82{fill:#cfa766;}.cls-262,.cls-83{fill:#cfa765;}.cls-84{fill:#cfa665;}.cls-85{fill:#cea665;}.cls-86{fill:#cea564;}.cls-259,.cls-87{fill:#cda564;}.cls-88{fill:#cca464;}.cls-256,.cls-89{fill:#cca463;}.cls-90{fill:#cba363;}.cls-253,.cls-91{fill:#cba362;}.cls-92{fill:#caa262;}.cls-93{fill:#c9a262;}.cls-94{fill:#c9a161;}.cls-250,.cls-95{fill:#c8a161;}.cls-96{fill:#c8a061;}.cls-97{fill:#c8a060;}.cls-247,.cls-98{fill:#c7a060;}.cls-99{fill:#c79f60;}.cls-100,.cls-245{fill:#c69f5f;}.cls-101{fill:#c69e5f;}.cls-102{fill:#c59e5f;}.cls-103{fill:#c59d5e;}.cls-104{fill:#c49d5e;}.cls-105{fill:#c39d5e;}.cls-106,.cls-239{fill:#c39c5d;}.cls-107,.cls-238{fill:#c29c5d;}.cls-108{fill:#c29b5d;}.cls-109,.cls-236{fill:#c19b5c;}.cls-110{fill:#c19a5c;}.cls-111{fill:#c09a5c;}.cls-112,.cls-235{fill:#c09a5b;}.cls-113{fill:#c0995b;}.cls-114,.cls-233{fill:#bf995b;}.cls-115{fill:#bf985a;}.cls-116,.cls-230{fill:#be985a;}.cls-117{fill:#bd975a;}.cls-118,.cls-227{fill:#bd9759;}.cls-119{fill:#bc9659;}.cls-120{fill:#bc9658;}.cls-121,.cls-225{fill:#bb9658;}.cls-122{fill:#bb9558;}.cls-123{fill:#ba9558;}.cls-124{fill:#ba9457;}.cls-125,.cls-222{fill:#b99457;}.cls-126{fill:#b99357;}.cls-127{fill:#b99356;}.cls-128,.cls-219{fill:#b89356;}.cls-129{fill:#b89256;}.cls-130,.cls-216{fill:#b79255;}.cls-131{fill:#b79155;}.cls-132{fill:#b69155;}.cls-133,.cls-214{fill:#b59154;}.cls-134{fill:#b59054;}.cls-135,.cls-213{fill:#b49054;}.cls-136{fill:#b48f53;}.cls-137,.cls-210{fill:#b38f53;}.cls-138{fill:#b38e53;}.cls-139,.cls-209{fill:#b28e52;}.cls-140{fill:#b28d52;}.cls-141,.cls-207{fill:#b18d52;}.cls-142,.cls-206{fill:#b18d51;}.cls-143{fill:#b18c51;}.cls-144,.cls-204{fill:#b08c51;}.cls-145{fill:#b08c50;}.cls-146,.cls-202{fill:#af8b50;}.cls-147{fill:#ae8a50;}.cls-148{fill:#ae8a4f;}.cls-149{fill:#ad894f;}.cls-150{fill:#ad894e;}.cls-151,.cls-198{fill:#ac894e;}.cls-152{fill:#ac884e;}.cls-153,.cls-196{fill:#ab884e;}.cls-154{fill:#ab874d;}.cls-155,.cls-193{fill:#aa874d;}.cls-156{fill:#aa864c;}.cls-157,.cls-190{fill:#a9864c;}.cls-158{fill:#a9854c;}.cls-159{fill:#a8854b;}.cls-160{clip-path:url(#clip-path-2);}.cls-161,.cls-162{fill:#997942;}.cls-162,.cls-163,.cls-164,.cls-165,.cls-166,.cls-167,.cls-168,.cls-169,.cls-170,.cls-171,.cls-172,.cls-173,.cls-174,.cls-175,.cls-176,.cls-177,.cls-178,.cls-179,.cls-180,.cls-181,.cls-182,.cls-183,.cls-184,.cls-185,.cls-186,.cls-187,.cls-188,.cls-189,.cls-190,.cls-191,.cls-192,.cls-193,.cls-194,.cls-195,.cls-196,.cls-197,.cls-198,.cls-199,.cls-200,.cls-201,.cls-202,.cls-203,.cls-204,.cls-205,.cls-206,.cls-207,.cls-208,.cls-209,.cls-210,.cls-211,.cls-212,.cls-213,.cls-214,.cls-215,.cls-216,.cls-217,.cls-218,.cls-219,.cls-220,.cls-221,.cls-222,.cls-223,.cls-224,.cls-225,.cls-226,.cls-227,.cls-228,.cls-229,.cls-230,.cls-231,.cls-232,.cls-233,.cls-234,.cls-235,.cls-236,.cls-237,.cls-238,.cls-239,.cls-240,.cls-241,.cls-242,.cls-243,.cls-244,.cls-245,.cls-246,.cls-247,.cls-248,.cls-249,.cls-250,.cls-251,.cls-252,.cls-253,.cls-254,.cls-255,.cls-256,.cls-257,.cls-258,.cls-259,.cls-260,.cls-261,.cls-262,.cls-263,.cls-264,.cls-265,.cls-266,.cls-267,.cls-268,.cls-269,.cls-270,.cls-271,.cls-272,.cls-273,.cls-274,.cls-275,.cls-276,.cls-277,.cls-278,.cls-279,.cls-280,.cls-281,.cls-282,.cls-283,.cls-284,.cls-285,.cls-286,.cls-287,.cls-288,.cls-289,.cls-290,.cls-291,.cls-292,.cls-293,.cls-294,.cls-295,.cls-296,.cls-297,.cls-298,.cls-299,.cls-300,.cls-301,.cls-302,.cls-303,.cls-304,.cls-305,.cls-306,.cls-307,.cls-308,.cls-309,.cls-310,.cls-311,.cls-312,.cls-313,.cls-314,.cls-315,.cls-316,.cls-317,.cls-318,.cls-319,.cls-320,.cls-321,.cls-322,.cls-323,.cls-324,.cls-325,.cls-326,.cls-327,.cls-328,.cls-329,.cls-330,.cls-331,.cls-332,.cls-333,.cls-334,.cls-335,.cls-336,.cls-337,.cls-338,.cls-339,.cls-340,.cls-341,.cls-342,.cls-343,.cls-344,.cls-345,.cls-346,.cls-347,.cls-348,.cls-349,.cls-350{fill-rule:evenodd;}.cls-163{fill:#9a7a43;}.cls-164{fill:#9b7a43;}.cls-165{fill:#9b7b43;}.cls-166{fill:#9b7b44;}.cls-167{fill:#9c7b44;}.cls-168{fill:#9c7c44;}.cls-169{fill:#9d7c44;}.cls-170{fill:#9d7c45;}.cls-171{fill:#9d7d45;}.cls-172{fill:#9e7d45;}.cls-173{fill:#9f7e46;}.cls-174{fill:#a07f46;}.cls-175{fill:#a07f47;}.cls-176{fill:#a17f47;}.cls-177{fill:#a18047;}.cls-178{fill:#a28148;}.cls-179{fill:#a38148;}.cls-180{fill:#a38248;}.cls-181{fill:#a38249;}.cls-182{fill:#a48249;}.cls-183{fill:#a48349;}.cls-184{fill:#a5834a;}.cls-185{fill:#a5844a;}.cls-186{fill:#a6844a;}.cls-187{fill:#a6844b;}.cls-188{fill:#a7854b;}.cls-189{fill:#a8864c;}.cls-191{fill:#a9874c;}.cls-192{fill:#a9874d;}.cls-194{fill:#aa884d;}.cls-195{fill:#ab884d;}.cls-197{fill:#ab894e;}.cls-199{fill:#ad8a4f;}.cls-200{fill:#ae8b4f;}.cls-201{fill:#ae8b50;}.cls-203{fill:#af8c50;}.cls-205{fill:#b08d51;}.cls-208{fill:#b18e52;}.cls-211{fill:#b39053;}.cls-212{fill:#b49053;}.cls-215{fill:#b69255;}.cls-217{fill:#b79355;}.cls-218{fill:#b79356;}.cls-220{fill:#b89456;}.cls-221{fill:#b99456;}.cls-223{fill:#b99557;}.cls-224{fill:#ba9557;}.cls-226{fill:#bc9759;}.cls-228{fill:#bd9859;}.cls-229{fill:#bd985a;}.cls-231{fill:#be995a;}.cls-232{fill:#bf995a;}.cls-234{fill:#bf9a5b;}.cls-237{fill:#c29c5c;}.cls-240{fill:#c39d5d;}.cls-241{fill:#c49e5e;}.cls-242{fill:#c59e5e;}.cls-243{fill:#c59f5e;}.cls-244{fill:#c59f5f;}.cls-246{fill:#c6a05f;}.cls-248{fill:#c7a160;}.cls-249{fill:#c8a160;}.cls-251{fill:#c9a261;}.cls-252{fill:#caa362;}.cls-254{fill:#cba462;}.cls-255{fill:#cba463;}.cls-257{fill:#cca563;}.cls-258{fill:#cda563;}.cls-260{fill:#cda664;}.cls-261{fill:#cea664;}.cls-263{fill:#d0a865;}.cls-265{fill:#d1a866;}.cls-266{fill:#d1a966;}.cls-268{fill:#d2aa67;}.cls-269{fill:#d3aa67;}.cls-271{fill:#d3ab68;}.cls-272{fill:#d4ab68;}.cls-274{fill:#d5ad69;}.cls-275{fill:#d6ad69;}.cls-277{fill:#d7ae6a;}.cls-278{fill:#d8af6b;}.cls-279{fill:#d9af6b;}.cls-280{fill:#d9b06b;}.cls-281{fill:#d9b06c;}.cls-283{fill:#dab16c;}.cls-284{fill:#dbb16c;}.cls-286{fill:#dbb26d;}.cls-287{fill:#dcb26d;}.cls-288{fill:#ddb36e;}.cls-290{fill:#dfb46f;}.cls-291{fill:#dfb56f;}.cls-293{fill:#e0b570;}.cls-294{fill:#e0b670;}.cls-295{fill:#e1b670;}.cls-297{fill:#e1b771;}.cls-298{fill:#e2b771;}.cls-299{fill:#e3b872;}.cls-300{fill:#e4b972;}.cls-302{fill:#e5b973;}.cls-303{fill:#e5ba73;}.cls-304{fill:#e6bb74;}.cls-305{fill:#e7bb74;}.cls-306{fill:#e7bc74;}.cls-307{fill:#e7bc75;}.cls-308{fill:#e8bc75;}.cls-309{fill:#e8bd75;}.cls-311{fill:#e9be76;}.cls-312{fill:#eabe76;}.cls-314{fill:#ebbf77;}.cls-315{fill:#ecc078;}.cls-316{fill:#edc078;}.cls-317{fill:#edc178;}.cls-318{fill:#edc179;}.cls-319{fill:#eec179;}.cls-320{fill:#eec279;}.cls-321{fill:#efc279;}.cls-322{fill:#efc27a;}.cls-323{fill:#efc37a;}.cls-324{fill:#f0c37a;}.cls-325{fill:#f1c47b;}.cls-326{fill:#f2c57b;}.cls-327{fill:#f2c57c;}.cls-328{fill:#f3c57c;}.cls-329{fill:#f3c67c;}.cls-330{fill:#f4c67d;}.cls-331{fill:#f4c77d;}.cls-332{fill:#f5c77d;}.cls-334{fill:#f5c87e;}.cls-335{fill:#f6c87e;}.cls-336{fill:#f7c97f;}.cls-337{fill:#f7ca7f;}.cls-338{fill:#f8ca7f;}.cls-339{fill:#f8ca80;}.cls-340{fill:#f9cb80;}.cls-341{fill:#facc81;}.cls-342{fill:#fbcc81;}.cls-343{fill:#fbcd81;}.cls-344{fill:#fbcd82;}.cls-345{fill:#fccd82;}.cls-346{fill:#fcce82;}.cls-347{fill:#fdce82;}.cls-348{fill:#fdce83;}.cls-349{fill:#fdcf83;}.cls-350{fill:#fecf83;}</style><clipPath id="clip-path" transform="translate(-789.11 -913.77)"><path class="cls-1" d="M979.43,1036.31a45.42,45.42,0,0,1-1,10.46,19.44,19.44,0,0,1-3.32,7.12,25.46,25.46,0,0,1-7.37,6.63,55.67,55.67,0,0,1-13.38,5.87l-3-7.34a26.78,26.78,0,0,0,5.39-3.07,9.76,9.76,0,0,0,2.58-3.06,13.79,13.79,0,0,0,1.16-4.14,51.13,51.13,0,0,0,.34-7.2V976.36c0-1.87,0-3.43-.14-4.71a8.38,8.38,0,0,0-.77-3.11,4.88,4.88,0,0,0-1.92-2,15.2,15.2,0,0,0-3.55-1.33v-3.94h31.41v3.94a12.66,12.66,0,0,0-3.68,1.44,5,5,0,0,0-1.73,1.85,8.13,8.13,0,0,0-.83,2.75,38.1,38.1,0,0,0-.22,5.07Zm122.94-71.06a11.24,11.24,0,0,0-4.31,2,5.7,5.7,0,0,0-1.59,2.81,30.42,30.42,0,0,0-.45,6.24V1028a34.86,34.86,0,0,0,.36,5.75,5.9,5.9,0,0,0,1.48,3.23c.74.74,2.24,1.39,4.51,2v3.94H1071.7V1039a18.82,18.82,0,0,0,3.62-1.27,3.79,3.79,0,0,0,1.59-1.39,5.86,5.86,0,0,0,.82-2.64,38.55,38.55,0,0,0,.31-5.81V998.55c0-3.2.06-7,.15-11.39s.25-7.51.36-9.33h-1.24c-.48,1.59-1,3.12-1.53,4.68s-1.53,4.28-3,8.22l-16,43.2h-10.52l-16.86-48.53c-1-2.75-1.88-5.47-2.64-8.19h-1.08c.4,6.58.6,14.34.6,23.33v27.52a30,30,0,0,0,.42,6.15,5.38,5.38,0,0,0,1.67,2.87,10.37,10.37,0,0,0,4.37,1.92v3.94h-22.62V1039a14.05,14.05,0,0,0,3.51-1.33,4.48,4.48,0,0,0,1.93-1.9,7.49,7.49,0,0,0,.82-3.06c.12-1.25.15-2.8.15-4.7V976.25a30.52,30.52,0,0,0-.4-6.21,5.34,5.34,0,0,0-1.53-2.75,11.58,11.58,0,0,0-4.48-2v-3.94h29.74l16.55,49.09,17.94-49.09h28.07Zm56.12-3.94a74.72,74.72,0,0,1,16.7,1.56,37.77,37.77,0,0,1,11.9,4.87,29.77,29.77,0,0,1,8.39,8,33.74,33.74,0,0,1,4.77,10.77,57.22,57.22,0,0,1,1.56,13.86,59.26,59.26,0,0,1-2.19,16.72,34.71,34.71,0,0,1-6.55,12.7,31.44,31.44,0,0,1-9.55,7.77,42.46,42.46,0,0,1-13,4.31,99.59,99.59,0,0,1-16,1.07H1127.4V1039a17.9,17.9,0,0,0,3.51-1.27,4.65,4.65,0,0,0,1.9-1.93,8.32,8.32,0,0,0,.79-3.09,42.53,42.53,0,0,0,.2-4.76V976.36c0-1.87,0-3.43-.17-4.71a7.84,7.84,0,0,0-.76-3.11,5,5,0,0,0-1.9-2,15.4,15.4,0,0,0-3.57-1.33v-3.94Zm-6.15,74.41a50.12,50.12,0,0,0,5.44.17,27.78,27.78,0,0,0,11.06-1.93,16.39,16.39,0,0,0,5.7-3.94,26.25,26.25,0,0,0,5.84-10.69,61.6,61.6,0,0,0,2.15-17.54c0-7.57-1-13.87-3-18.85s-4.91-8.71-8.59-11.09a24.15,24.15,0,0,0-13.24-3.54c-2.47,0-4.25,0-5.33.11Z"/></clipPath><clipPath id="clip-path-2" transform="translate(-789.11 -913.77)"><polygon class="cls-2" points="852.07 1056.89 852.07 1056.89 852.07 1056.89 847.45 1054.23 847.45 1054.23 847.45 1054.23 842.8 1051.53 842.8 1051.53 842.8 1051.53 830.13 1044.22 830.13 1044.22 830.13 1044.22 825.48 1041.56 825.48 1041.56 825.48 1041.56 820.86 1038.86 820.86 1038.86 820.86 1038.86 810.99 1033.19 810.99 1000.45 810.99 1000.45 810.99 967.68 813.57 966.21 813.57 966.21 813.57 966.21 818.22 963.52 818.22 963.52 818.22 963.52 822.84 960.85 822.87 960.85 822.87 960.85 827.49 958.16 827.49 958.16 827.49 958.16 839.37 951.33 839.37 951.33 865.25 936.39 867.71 934.95 872.25 937.55 885.29 945.09 885.29 949.54 885.29 1000.42 885.29 1000.45 885.29 1010.57 883.39 1011.68 883.39 1011.68 883.39 1011.68 876.5 1015.65 876.5 1015.68 869.33 1019.79 869.33 1019.79 867.69 1020.75 850.17 1010.63 850.11 1010.6 850.11 1001.64 840.13 995.86 840.13 1000.42 840.13 1000.42 840.13 1016.36 845.18 1019.28 845.18 1019.28 845.18 1019.28 853.91 1024.32 853.94 1024.29 867.71 1032.26 882.85 1023.53 882.85 1023.53 882.85 1023.53 890.9 1018.88 890.9 1018.88 890.9 1018.88 894.3 1016.92 894.3 1016.92 894.3 1016.92 895.27 1016.36 895.27 1000.45 895.29 1000.42 895.29 962.1 895.29 950.85 896.06 951.3 896.06 951.33 905.1 956.54 905.1 964.37 905.1 981.69 905.1 982.62 905.1 1000.42 905.13 1000.42 905.13 1022.02 892.66 1029.22 892.66 1029.22 892.66 1029.22 888.04 1031.89 888.04 1031.89 888.04 1031.89 872.87 1040.65 872.87 1040.65 872.87 1040.65 868.22 1043.31 868.22 1043.31 868.22 1043.31 867.69 1043.65 865.3 1042.27 865.3 1042.27 865.3 1042.27 858.19 1038.15 858.19 1038.15 858.19 1038.15 849 1032.85 849 1032.83 844.55 1030.27 844.55 1030.27 844.55 1030.27 830.3 1022.02 830.3 1000.45 830.3 1000.42 830.3 978.83 840.13 984.52 842.37 985.8 842.37 985.8 842.37 985.8 850.14 990.28 859.98 995.98 859.98 1000.42 859.98 1000.42 859.98 1004.88 867.71 1009.35 871.57 1007.12 871.6 1007.14 873.24 1006.18 873.24 1006.18 873.24 1006.18 875.45 1004.9 875.45 1000.45 875.45 1000.45 875.45 950.79 873.21 949.51 873.21 949.51 873.21 949.51 867.69 946.31 847.67 957.88 847.67 957.88 847.67 957.88 844.27 959.83 844.27 959.86 840.42 962.1 840.42 962.1 840.42 962.1 837.01 964.06 837.01 964.06 837.01 964.06 832.37 966.72 832.37 966.72 832.37 966.72 828.96 968.68 828.96 968.68 828.96 968.68 824.34 971.37 824.34 971.37 824.34 971.37 820.94 973.33 820.94 973.33 820.94 973.33 820.86 973.38 820.86 1000.42 820.83 1000.45 820.83 1027.47 867.71 1054.54 891.16 1041.02 891.16 1041.02 896.68 1037.81 896.68 1037.81 896.68 1037.81 902.55 1034.44 902.55 1034.44 902.55 1034.44 909.7 1030.33 909.7 1030.33 909.7 1030.33 914.57 1027.5 914.57 1000.45 914.57 1000.45 914.57 987.5 914.57 962.02 924.41 967.71 924.41 1000.42 924.41 1000.45 924.41 1033.16 900.03 1047.25 900.03 1047.25 900.03 1047.25 896.06 1049.52 896.06 1049.55 868.34 1065.57 868.34 1065.57 868.34 1065.57 867.69 1065.93 852.07 1056.89"/></clipPath></defs><g class="cls-3"><polygon class="cls-4" points="396.34 0 400.28 19.02 147.03 71.15 143.09 52.13 396.34 0"/><polygon class="cls-4" points="400.22 18.82 400.37 19.47 147.12 71.58 146.98 70.92 400.22 18.82"/><polygon class="cls-5" points="400.31 19.25 400.45 19.9 147.2 72.03 147.06 71.38 400.31 19.25"/><polygon class="cls-6" points="400.39 19.7 400.54 20.35 147.29 72.45 147.15 71.8 400.39 19.7"/><polygon class="cls-6" points="400.51 20.13 400.62 20.78 147.37 72.91 147.23 72.25 400.51 20.13"/><polygon class="cls-7" points="400.59 20.58 400.73 21.23 147.46 73.33 147.34 72.68 400.59 20.58"/><polygon class="cls-8" points="400.68 21 400.82 21.66 147.57 73.79 147.43 73.13 400.68 21"/><polygon class="cls-9" points="400.76 21.46 400.9 22.11 147.66 74.21 147.51 73.56 400.76 21.46"/><polygon class="cls-10" points="400.85 21.88 400.99 22.54 147.74 74.67 147.6 73.98 400.85 21.88"/><polygon class="cls-11" points="400.96 22.34 401.07 22.99 147.83 75.09 147.69 74.44 400.96 22.34"/><polygon class="cls-11" points="401.05 22.76 401.16 23.41 147.91 75.54 147.8 74.86 401.05 22.76"/><polygon class="cls-12" points="401.13 23.19 401.27 23.87 148.03 75.97 147.88 75.32 401.13 23.19"/><polygon class="cls-13" points="401.22 23.64 401.36 24.29 148.11 76.42 147.97 75.74 401.22 23.64"/><polygon class="cls-13" points="401.3 24.07 401.44 24.75 148.19 76.85 148.05 76.19 401.3 24.07"/><polygon class="cls-14" points="401.39 24.52 401.53 25.17 148.28 77.3 148.14 76.62 401.39 24.52"/><polygon class="cls-14" points="401.5 24.95 401.61 25.63 148.37 77.73 148.25 77.07 401.5 24.95"/><polygon class="cls-15" points="401.58 25.4 401.73 26.05 148.45 78.15 148.34 77.5 401.58 25.4"/><polygon class="cls-16" points="401.67 25.82 401.81 26.48 148.56 78.61 148.42 77.95 401.67 25.82"/><polygon class="cls-16" points="401.75 26.28 401.9 26.93 148.65 79.03 148.51 78.38 401.75 26.28"/><polygon class="cls-17" points="401.84 26.7 401.98 27.35 148.73 79.48 148.59 78.83 401.84 26.7"/><polygon class="cls-18" points="401.95 27.16 402.07 27.81 148.82 79.91 148.68 79.26 401.95 27.16"/><polygon class="cls-18" points="402.04 27.58 402.15 28.23 148.9 80.36 148.79 79.71 402.04 27.58"/><polygon class="cls-19" points="402.12 28.04 402.26 28.69 149.02 80.79 148.88 80.14 402.12 28.04"/><polygon class="cls-20" points="402.21 28.46 402.35 29.11 149.1 81.24 148.96 80.59 402.21 28.46"/><polygon class="cls-20" points="402.29 28.91 402.44 29.57 149.19 81.67 149.05 81.01 402.29 28.91"/><polygon class="cls-21" points="402.38 29.34 402.52 29.99 149.27 82.12 149.13 81.47 402.38 29.34"/><polygon class="cls-22" points="402.49 29.79 402.61 30.44 149.36 82.55 149.24 81.89 402.49 29.79"/><polygon class="cls-22" points="402.58 30.22 402.72 30.87 149.44 83 149.33 82.32 402.58 30.22"/><polygon class="cls-23" points="402.66 30.64 402.8 31.32 149.56 83.42 149.41 82.77 402.66 30.64"/><polygon class="cls-24" points="402.75 31.1 402.89 31.75 149.64 83.88 149.5 83.2 402.75 31.1"/><polygon class="cls-24" points="402.83 31.52 402.97 32.2 149.73 84.3 149.58 83.65 402.83 31.52"/><polygon class="cls-25" points="402.94 31.98 403.06 32.63 149.81 84.76 149.67 84.08 402.94 31.98"/><polygon class="cls-25" points="403.03 32.4 403.17 33.08 149.9 85.18 149.78 84.53 403.03 32.4"/><polygon class="cls-26" points="403.12 32.85 403.26 33.51 150.01 85.64 149.87 84.95 403.12 32.85"/><polygon class="cls-27" points="403.2 33.28 403.34 33.96 150.09 86.06 149.95 85.41 403.2 33.28"/><polygon class="cls-27" points="403.29 33.73 403.43 34.38 150.18 86.48 150.04 85.83 403.29 33.73"/><polygon class="cls-28" points="403.37 34.16 403.51 34.81 150.26 86.94 150.12 86.29 403.37 34.16"/><polygon class="cls-29" points="403.48 34.61 403.6 35.26 150.35 87.36 150.24 86.71 403.48 34.61"/><polygon class="cls-30" points="403.57 35.04 403.71 35.69 150.46 87.82 150.32 87.17 403.57 35.04"/><polygon class="cls-30" points="403.65 35.49 403.8 36.14 150.55 88.24 150.41 87.59 403.65 35.49"/><polygon class="cls-31" points="403.74 35.91 403.88 36.57 150.63 88.7 150.49 88.04 403.74 35.91"/><polygon class="cls-31" points="403.82 36.37 403.96 37.02 150.72 89.12 150.58 88.47 403.82 36.37"/><polygon class="cls-32" points="403.94 36.79 404.05 37.45 150.8 89.58 150.66 88.92 403.94 36.79"/><polygon class="cls-33" points="404.02 37.25 404.16 37.9 150.89 90 150.78 89.35 404.02 37.25"/><polygon class="cls-33" points="404.11 37.67 404.25 38.32 151 90.45 150.86 89.77 404.11 37.67"/><polygon class="cls-33" points="404.19 38.13 404.33 38.78 151.09 90.88 150.94 90.23 404.19 38.13"/><polygon class="cls-34" points="404.28 38.55 404.42 39.2 151.17 91.33 151.03 90.65 404.28 38.55"/><polygon class="cls-35" points="404.39 38.98 404.5 39.66 151.26 91.76 151.12 91.11 404.39 38.98"/><polygon class="cls-35" points="404.48 39.43 404.59 40.08 151.34 92.21 151.23 91.53 404.48 39.43"/><polygon class="cls-36" points="404.56 39.85 404.7 40.53 151.46 92.64 151.31 91.98 404.56 39.85"/><polygon class="cls-37" points="404.65 40.31 404.79 40.96 151.54 93.09 151.4 92.41 404.65 40.31"/><polygon class="cls-38" points="404.73 40.73 404.87 41.41 151.63 93.52 151.48 92.86 404.73 40.73"/><polygon class="cls-39" points="404.82 41.19 404.96 41.84 151.71 93.94 151.57 93.29 404.82 41.19"/><polygon class="cls-40" points="404.93 41.61 405.04 42.29 151.79 94.39 151.65 93.74 404.93 41.61"/><polygon class="cls-40" points="405.01 42.07 405.16 42.72 151.88 94.82 151.77 94.17 405.01 42.07"/><polygon class="cls-41" points="405.1 42.49 405.24 43.14 151.99 95.27 151.85 94.62 405.1 42.49"/><polygon class="cls-41" points="405.18 42.95 405.33 43.6 152.08 95.7 151.94 95.05 405.18 42.95"/><polygon class="cls-42" points="405.27 43.37 405.41 44.02 152.16 96.15 152.02 95.5 405.27 43.37"/><polygon class="cls-43" points="405.38 43.82 405.5 44.48 152.25 96.58 152.11 95.92 405.38 43.82"/><polygon class="cls-43" points="405.47 44.25 405.58 44.9 152.33 97.03 152.22 96.38 405.47 44.25"/><polygon class="cls-44" points="405.55 44.7 405.69 45.35 152.45 97.45 152.31 96.8 405.55 44.7"/><polygon class="cls-45" points="405.64 45.13 405.78 45.78 152.53 97.91 152.39 97.26 405.64 45.13"/><polygon class="cls-45" points="405.72 45.58 405.87 46.23 152.62 98.33 152.48 97.68 405.72 45.58"/><polygon class="cls-46" points="405.81 46.01 405.95 46.66 152.7 98.79 152.56 98.11 405.81 46.01"/><polygon class="cls-47" points="405.92 46.46 406.04 47.11 152.79 99.21 152.67 98.56 405.92 46.46"/><polygon class="cls-47" points="406.01 46.88 406.15 47.54 152.87 99.67 152.76 98.99 406.01 46.88"/><polygon class="cls-48" points="406.09 47.31 406.23 47.99 152.99 100.09 152.84 99.44 406.09 47.31"/><polygon class="cls-49" points="406.18 47.76 406.32 48.42 153.07 100.55 152.93 99.86 406.18 47.76"/><polygon class="cls-49" points="406.26 48.19 406.4 48.87 153.16 100.97 153.01 100.32 406.26 48.19"/><polygon class="cls-50" points="406.38 48.64 406.49 49.29 153.24 101.42 153.1 100.74 406.38 48.64"/><polygon class="cls-51" points="406.46 49.07 406.6 49.75 153.33 101.85 153.21 101.2 406.46 49.07"/><polygon class="cls-51" points="406.55 49.52 406.69 50.17 153.44 102.27 153.3 101.62 406.55 49.52"/><polygon class="cls-52" points="406.63 49.95 406.77 50.63 153.52 102.73 153.38 102.08 406.63 49.95"/><polygon class="cls-53" points="406.71 50.4 406.86 51.05 153.61 103.15 153.47 102.5 406.71 50.4"/><polygon class="cls-54" points="406.8 50.83 406.94 51.48 153.69 103.61 153.55 102.95 406.8 50.83"/><polygon class="cls-55" points="406.91 51.28 407.03 51.93 153.78 104.03 153.67 103.38 406.91 51.28"/><polygon class="cls-55" points="407 51.7 407.14 52.36 153.87 104.48 153.75 103.83 407 51.7"/><polygon class="cls-56" points="407.08 52.16 407.23 52.81 153.98 104.91 153.84 104.26 407.08 52.16"/><polygon class="cls-57" points="407.17 52.58 407.31 53.23 154.06 105.36 153.92 104.71 407.17 52.58"/><polygon class="cls-57" points="407.25 53.04 407.39 53.69 154.15 105.79 154.01 105.14 407.25 53.04"/><polygon class="cls-58" points="407.37 53.46 407.48 54.11 154.23 106.24 154.09 105.59 407.37 53.46"/><polygon class="cls-59" points="407.45 53.91 407.59 54.57 154.32 106.67 154.21 106.02 407.45 53.91"/><polygon class="cls-60" points="407.54 54.34 407.68 54.99 154.43 107.12 154.29 106.44 407.54 54.34"/><polygon class="cls-60" points="407.62 54.77 407.76 55.45 154.52 107.55 154.38 106.89 407.62 54.77"/><polygon class="cls-61" points="407.71 55.22 407.85 55.87 154.6 108 154.46 107.32 407.71 55.22"/><polygon class="cls-61" points="407.79 55.64 407.93 56.32 154.69 108.42 154.54 107.77 407.79 55.64"/><polygon class="cls-62" points="407.91 56.1 408.02 56.75 154.77 108.88 154.66 108.2 407.91 56.1"/><polygon class="cls-63" points="407.99 56.52 408.13 57.2 154.88 109.3 154.74 108.65 407.99 56.52"/><polygon class="cls-63" points="408.08 56.98 408.22 57.63 154.97 109.76 154.83 109.08 408.08 56.98"/><polygon class="cls-63" points="408.16 57.4 408.3 58.08 155.06 110.18 154.91 109.53 408.16 57.4"/><polygon class="cls-64" points="408.25 57.85 408.39 58.51 155.14 110.61 155 109.96 408.25 57.85"/><polygon class="cls-65" points="408.36 58.28 408.47 58.93 155.22 111.06 155.08 110.41 408.36 58.28"/><polygon class="cls-65" points="408.44 58.73 408.59 59.39 155.31 111.49 155.2 110.83 408.44 58.73"/><polygon class="cls-66" points="408.53 59.16 408.67 59.81 155.42 111.94 155.28 111.29 408.53 59.16"/><polygon class="cls-67" points="408.61 59.61 408.76 60.27 155.51 112.36 155.37 111.71 408.61 59.61"/><polygon class="cls-68" points="408.7 60.04 408.84 60.69 155.59 112.82 155.45 112.17 408.7 60.04"/><polygon class="cls-69" points="408.81 60.49 408.93 61.14 155.68 113.24 155.54 112.59 408.81 60.49"/><polygon class="cls-70" points="408.9 60.92 409.01 61.57 155.76 113.7 155.65 113.05 408.9 60.92"/><polygon class="cls-70" points="408.98 61.37 409.12 62.02 155.88 114.12 155.74 113.47 408.98 61.37"/><polygon class="cls-71" points="409.07 61.8 409.21 62.45 155.96 114.58 155.82 113.92 409.07 61.8"/><polygon class="cls-71" points="409.15 62.25 409.3 62.9 156.05 115 155.91 114.35 409.15 62.25"/><polygon class="cls-72" points="409.24 62.67 409.38 63.33 156.13 115.45 155.99 114.78 409.24 62.67"/><polygon class="cls-73" points="409.35 63.1 409.46 63.78 156.22 115.88 156.1 115.23 409.35 63.1"/><polygon class="cls-73" points="409.44 63.55 409.58 64.2 156.3 116.33 156.19 115.65 409.44 63.55"/><polygon class="cls-74" points="409.52 63.98 409.66 64.66 156.42 116.76 156.27 116.11 409.52 63.98"/><polygon class="cls-75" points="409.61 64.43 409.75 65.08 156.5 117.21 156.36 116.53 409.61 64.43"/><polygon class="cls-75" points="409.69 64.86 409.83 65.54 156.59 117.64 156.44 116.99 409.69 64.86"/><polygon class="cls-76" points="409.81 65.31 409.92 65.96 156.67 118.06 156.53 117.41 409.81 65.31"/><polygon class="cls-77" points="409.89 65.73 410 66.42 156.76 118.52 156.64 117.86 409.89 65.73"/><polygon class="cls-77" points="409.98 66.19 410.12 66.84 156.87 118.94 156.73 118.29 409.98 66.19"/><polygon class="cls-78" points="410.06 66.61 410.2 67.27 156.95 119.39 156.81 118.74 410.06 66.61"/><polygon class="cls-79" points="410.14 67.07 410.29 67.72 157.04 119.82 156.9 119.17 410.14 67.07"/><polygon class="cls-79" points="410.23 67.49 410.37 68.14 157.12 120.27 156.98 119.62 410.23 67.49"/><polygon class="cls-80" points="410.34 67.95 410.46 68.6 157.21 120.7 157.1 120.05 410.34 67.95"/><polygon class="cls-81" points="410.43 68.37 410.57 69.02 157.29 121.15 157.18 120.5 410.43 68.37"/><polygon class="cls-81" points="410.51 68.83 410.65 69.48 157.41 121.58 157.27 120.93 410.51 68.83"/><polygon class="cls-82" points="410.6 69.25 410.74 69.9 157.49 122.03 157.35 121.38 410.6 69.25"/><polygon class="cls-83" points="410.68 69.7 410.82 70.36 157.58 122.46 157.44 121.81 410.68 69.7"/><polygon class="cls-84" points="410.8 70.13 410.91 70.78 157.66 122.91 157.52 122.23 410.8 70.13"/><polygon class="cls-85" points="410.88 70.58 411.02 71.23 157.75 123.33 157.63 122.68 410.88 70.58"/><polygon class="cls-85" points="410.97 71.01 411.11 71.66 157.86 123.79 157.72 123.11 410.97 71.01"/><polygon class="cls-86" points="411.05 71.43 411.19 72.11 157.95 124.21 157.81 123.56 411.05 71.43"/><polygon class="cls-87" points="411.14 71.89 411.28 72.54 158.03 124.67 157.89 123.99 411.14 71.89"/><polygon class="cls-87" points="411.22 72.31 411.36 72.99 158.12 125.09 157.97 124.44 411.22 72.31"/><polygon class="cls-87" points="411.33 72.77 411.45 73.42 158.2 125.55 158.09 124.87 411.33 72.77"/><polygon class="cls-88" points="411.42 73.19 411.56 73.87 158.31 125.97 158.17 125.32 411.42 73.19"/><polygon class="cls-89" points="411.51 73.64 411.65 74.3 158.4 126.4 158.26 125.75 411.51 73.64"/><polygon class="cls-89" points="411.59 74.07 411.73 74.75 158.49 126.85 158.34 126.2 411.59 74.07"/><polygon class="cls-90" points="411.68 74.52 411.82 75.17 158.57 127.28 158.43 126.62 411.68 74.52"/><polygon class="cls-90" points="411.79 74.95 411.9 75.6 158.66 127.73 158.51 127.08 411.79 74.95"/><polygon class="cls-91" points="411.87 75.4 412.02 76.05 158.74 128.15 158.63 127.5 411.87 75.4"/><polygon class="cls-92" points="411.96 75.83 412.1 76.48 158.85 128.61 158.71 127.96 411.96 75.83"/><polygon class="cls-92" points="412.04 76.28 412.19 76.93 158.94 129.03 158.8 128.38 412.04 76.28"/><polygon class="cls-92" points="412.13 76.71 412.27 77.36 159.02 129.49 158.88 128.84 412.13 76.71"/><polygon class="cls-93" points="412.24 77.16 412.36 77.81 159.11 129.91 158.97 129.26 412.24 77.16"/><polygon class="cls-94" points="412.33 77.58 412.44 78.24 159.19 130.37 159.08 129.71 412.33 77.58"/><polygon class="cls-94" points="412.41 78.04 412.55 78.69 159.31 130.79 159.16 130.14 412.41 78.04"/><polygon class="cls-95" points="412.5 78.46 412.64 79.11 159.39 131.24 159.25 130.56 412.5 78.46"/><polygon class="cls-96" points="412.58 78.89 412.72 79.57 159.48 131.67 159.34 131.02 412.58 78.89"/><polygon class="cls-97" points="412.67 79.34 412.81 79.99 159.56 132.12 159.42 131.44 412.67 79.34"/><polygon class="cls-98" points="412.78 79.77 412.89 80.45 159.65 132.55 159.51 131.9 412.78 79.77"/><polygon class="cls-98" points="412.87 80.22 413.01 80.87 159.73 133 159.62 132.32 412.87 80.22"/><polygon class="cls-99" points="412.95 80.65 413.09 81.33 159.85 133.43 159.7 132.78 412.95 80.65"/><polygon class="cls-100" points="413.04 81.1 413.18 81.75 159.93 133.88 159.79 133.2 413.04 81.1"/><polygon class="cls-100" points="413.12 81.52 413.26 82.2 160.02 134.31 159.87 133.65 413.12 81.52"/><polygon class="cls-101" points="413.24 81.98 413.35 82.63 160.1 134.73 159.96 134.08 413.24 81.98"/><polygon class="cls-102" points="413.32 82.4 413.43 83.06 160.19 135.18 160.07 134.53 413.32 82.4"/><polygon class="cls-102" points="413.4 82.86 413.55 83.51 160.3 135.61 160.16 134.96 413.4 82.86"/><polygon class="cls-103" points="413.49 83.28 413.63 83.93 160.38 136.06 160.24 135.41 413.49 83.28"/><polygon class="cls-104" points="413.57 83.73 413.72 84.39 160.47 136.49 160.33 135.84 413.57 83.73"/><polygon class="cls-104" points="413.66 84.16 413.8 84.81 160.55 136.94 160.41 136.29 413.66 84.16"/><polygon class="cls-105" points="413.77 84.61 413.89 85.27 160.64 137.37 160.53 136.72 413.77 84.61"/><polygon class="cls-106" points="413.86 85.04 414 85.69 160.72 137.82 160.61 137.17 413.86 85.04"/><polygon class="cls-106" points="413.94 85.49 414.08 86.14 160.84 138.25 160.7 137.59 413.94 85.49"/><polygon class="cls-107" points="414.03 85.92 414.17 86.57 160.92 138.7 160.78 138.05 414.03 85.92"/><polygon class="cls-108" points="414.11 86.37 414.25 87.02 161.01 139.12 160.87 138.47 414.11 86.37"/><polygon class="cls-108" points="414.23 86.8 414.34 87.45 161.09 139.58 160.95 138.9 414.23 86.8"/><polygon class="cls-109" points="414.31 87.22 414.45 87.9 161.18 140 161.06 139.35 414.31 87.22"/><polygon class="cls-109" points="414.4 87.68 414.54 88.33 161.29 140.46 161.15 139.78 414.4 87.68"/><polygon class="cls-110" points="414.48 88.1 414.62 88.78 161.38 140.88 161.24 140.23 414.48 88.1"/><polygon class="cls-111" points="414.57 88.55 414.71 89.21 161.46 141.34 161.32 140.66 414.57 88.55"/><polygon class="cls-112" points="414.65 88.98 414.79 89.66 161.55 141.76 161.41 141.11 414.65 88.98"/><polygon class="cls-113" points="414.76 89.43 414.88 90.08 161.63 142.19 161.52 141.53 414.76 89.43"/><polygon class="cls-114" points="414.85 89.86 414.99 90.54 161.75 142.64 161.6 141.99 414.85 89.86"/><polygon class="cls-114" points="414.94 90.31 415.08 90.96 161.83 143.06 161.69 142.41 414.94 90.31"/><polygon class="cls-115" points="415.02 90.74 415.16 91.39 161.91 143.52 161.77 142.87 415.02 90.74"/><polygon class="cls-116" points="415.11 91.19 415.25 91.84 162 143.94 161.86 143.29 415.11 91.19"/><polygon class="cls-116" points="415.22 91.62 415.33 92.27 162.09 144.4 161.94 143.75 415.22 91.62"/><polygon class="cls-116" points="415.3 92.07 415.45 92.72 162.17 144.82 162.06 144.17 415.3 92.07"/><polygon class="cls-117" points="415.39 92.49 415.53 93.15 162.28 145.28 162.14 144.62 415.39 92.49"/><polygon class="cls-118" points="415.47 92.95 415.62 93.6 162.37 145.7 162.23 145.05 415.47 92.95"/><polygon class="cls-118" points="415.56 93.37 415.7 94.03 162.45 146.15 162.31 145.5 415.56 93.37"/><polygon class="cls-119" points="415.64 93.83 415.79 94.48 162.54 146.58 162.4 145.93 415.64 93.83"/><polygon class="cls-119" points="415.76 94.25 415.87 94.9 162.62 147.03 162.51 146.35 415.76 94.25"/><polygon class="cls-120" points="415.84 94.71 415.98 95.36 162.74 147.46 162.59 146.81 415.84 94.71"/><polygon class="cls-121" points="415.93 95.13 416.07 95.78 162.82 147.91 162.68 147.23 415.93 95.13"/><polygon class="cls-122" points="416.01 95.56 416.15 96.24 162.91 148.34 162.76 147.69 416.01 95.56"/><polygon class="cls-122" points="416.1 96.01 416.24 96.66 162.99 148.79 162.85 148.11 416.1 96.01"/><polygon class="cls-123" points="416.21 96.44 416.32 97.11 163.08 149.22 162.94 148.56 416.21 96.44"/><polygon class="cls-124" points="416.3 96.89 416.44 97.54 163.16 149.67 163.05 148.99 416.3 96.89"/><polygon class="cls-124" points="416.38 97.31 416.52 97.99 163.28 150.09 163.13 149.44 416.38 97.31"/><polygon class="cls-125" points="416.47 97.77 416.61 98.42 163.36 150.52 163.22 149.87 416.47 97.77"/><polygon class="cls-126" points="416.55 98.19 416.69 98.87 163.45 150.97 163.3 150.32 416.55 98.19"/><polygon class="cls-127" points="416.67 98.65 416.78 99.3 163.53 151.4 163.39 150.75 416.67 98.65"/><polygon class="cls-128" points="416.75 99.07 416.86 99.72 163.62 151.85 163.5 151.2 416.75 99.07"/><polygon class="cls-128" points="416.83 99.52 416.98 100.18 163.73 152.28 163.59 151.63 416.83 99.52"/><polygon class="cls-129" points="416.92 99.95 417.06 100.6 163.81 152.73 163.67 152.08 416.92 99.95"/><polygon class="cls-130" points="417 100.4 417.15 101.06 163.9 153.16 163.76 152.5 417 100.4"/><polygon class="cls-130" points="417.09 100.83 417.23 101.48 163.98 153.61 163.84 152.96 417.09 100.83"/><polygon class="cls-131" points="417.2 101.28 417.32 101.93 164.07 154.03 163.96 153.38 417.2 101.28"/><polygon class="cls-132" points="417.29 101.71 417.43 102.36 164.15 154.49 164.04 153.84 417.29 101.71"/><polygon class="cls-132" points="417.37 102.16 417.51 102.81 164.27 154.91 164.13 154.26 417.37 102.16"/><polygon class="cls-133" points="417.46 102.59 417.6 103.24 164.35 155.37 164.21 154.69 417.46 102.59"/><polygon class="cls-134" points="417.54 103.04 417.69 103.69 164.44 155.79 164.3 155.14 417.54 103.04"/><polygon class="cls-134" points="417.66 103.47 417.77 104.12 164.52 156.25 164.38 155.56 417.66 103.47"/><polygon class="cls-135" points="417.74 103.89 417.88 104.57 164.61 156.67 164.5 156.02 417.74 103.89"/><polygon class="cls-136" points="417.83 104.34 417.97 105 164.72 157.12 164.58 156.44 417.83 104.34"/><polygon class="cls-136" points="417.91 104.77 418.05 105.45 164.81 157.55 164.66 156.9 417.91 104.77"/><polygon class="cls-137" points="418 105.22 418.14 105.87 164.89 158 164.75 157.32 418 105.22"/><polygon class="cls-138" points="418.08 105.65 418.22 106.33 164.98 158.43 164.84 157.78 418.08 105.65"/><polygon class="cls-138" points="418.19 106.1 418.31 106.75 165.06 158.85 164.95 158.2 418.19 106.1"/><polygon class="cls-139" points="418.28 106.53 418.42 107.18 165.15 159.31 165.03 158.66 418.28 106.53"/><polygon class="cls-139" points="418.37 106.98 418.51 107.63 165.26 159.73 165.12 159.08 418.37 106.98"/><polygon class="cls-140" points="418.45 107.41 418.59 108.06 165.34 160.19 165.2 159.53 418.45 107.41"/><polygon class="cls-141" points="418.54 107.86 418.68 108.51 165.43 160.61 165.29 159.96 418.54 107.86"/><polygon class="cls-142" points="418.65 108.28 418.76 108.94 165.51 161.06 165.37 160.41 418.65 108.28"/><polygon class="cls-143" points="418.73 108.74 418.88 109.39 165.6 161.49 165.49 160.84 418.73 108.74"/><polygon class="cls-144" points="418.82 109.16 418.96 109.81 165.71 161.94 165.57 161.29 418.82 109.16"/><polygon class="cls-144" points="418.9 109.62 419.05 110.27 165.8 162.37 165.66 161.72 418.9 109.62"/><polygon class="cls-145" points="418.99 110.04 419.13 110.69 165.88 162.82 165.74 162.17 418.99 110.04"/><polygon class="cls-146" points="419.07 110.49 419.22 111.15 165.97 163.25 165.83 162.59 419.07 110.49"/><polygon class="cls-146" points="419.19 110.92 419.3 111.57 166.05 163.7 165.94 163.02 419.19 110.92"/><polygon class="cls-146" points="419.27 111.34 419.41 112.03 166.17 164.13 166.03 163.47 419.27 111.34"/><polygon class="cls-147" points="419.36 111.8 419.5 112.45 166.25 164.58 166.11 163.9 419.36 111.8"/><polygon class="cls-148" points="419.44 112.22 419.58 112.9 166.34 165 166.19 164.35 419.44 112.22"/><polygon class="cls-148" points="419.53 112.68 419.67 113.33 166.42 165.46 166.28 164.78 419.53 112.68"/><polygon class="cls-149" points="419.64 113.1 419.75 113.78 166.51 165.88 166.37 165.23 419.64 113.1"/><polygon class="cls-149" points="419.73 113.56 419.87 114.21 166.59 166.34 166.48 165.66 419.73 113.56"/><polygon class="cls-150" points="419.81 113.98 419.95 114.66 166.71 166.76 166.56 166.11 419.81 113.98"/><polygon class="cls-151" points="419.9 114.44 420.04 115.09 166.79 167.19 166.65 166.53 419.9 114.44"/><polygon class="cls-152" points="419.98 114.86 420.12 115.51 166.88 167.64 166.73 166.99 419.98 114.86"/><polygon class="cls-152" points="420.1 115.31 420.21 115.97 166.96 168.07 166.82 167.41 420.1 115.31"/><polygon class="cls-153" points="420.18 115.74 420.29 116.39 167.05 168.52 166.93 167.87 420.18 115.74"/><polygon class="cls-154" points="420.26 116.19 420.41 116.84 167.16 168.94 167.02 168.29 420.26 116.19"/><polygon class="cls-154" points="420.35 116.62 420.49 117.27 167.24 169.4 167.1 168.75 420.35 116.62"/><polygon class="cls-155" points="420.44 117.07 420.58 117.72 167.33 169.82 167.19 169.17 420.44 117.07"/><polygon class="cls-155" points="420.52 117.5 420.66 118.15 167.41 170.28 167.27 169.63 420.52 117.5"/><polygon class="cls-156" points="420.63 117.95 420.75 118.6 167.5 170.7 167.39 170.05 420.63 117.95"/><polygon class="cls-157" points="420.72 118.38 420.86 119.03 167.58 171.16 167.47 170.48 420.72 118.38"/><polygon class="cls-157" points="420.8 118.83 420.94 119.48 167.7 171.58 167.56 170.93 420.8 118.83"/><polygon class="cls-158" points="420.89 119.25 421.03 119.91 167.78 172.03 167.64 171.35 420.89 119.25"/><polygon class="cls-159" points="420.97 119.68 421.12 120.36 167.87 172.46 167.73 171.81 420.97 119.68"/><polygon class="cls-159" points="421.09 120.13 421.06 120.1 167.81 172.23 167.81 172.23 421.09 120.13"/></g><g class="cls-160"><rect class="cls-161" x="787.2" y="939.95" width="127.17" height="4.37" transform="translate(-1018.18 -638.98) rotate(-16.2)"/><polygon class="cls-162" points="123.31 12.5 123.51 13.21 1.36 48.64 1.16 47.93 123.31 12.5"/><polygon class="cls-163" points="123.42 12.98 123.62 13.66 1.5 49.1 1.3 48.42 123.42 12.98"/><polygon class="cls-163" points="123.56 13.44 123.76 14.14 1.64 49.58 1.42 48.87 123.56 13.44"/><polygon class="cls-164" points="123.7 13.92 123.9 14.6 1.76 50.03 1.56 49.32 123.7 13.92"/><polygon class="cls-165" points="123.85 14.37 124.04 15.08 1.9 50.48 1.7 49.8 123.85 14.37"/><polygon class="cls-166" points="123.96 14.82 124.16 15.53 2.04 50.97 1.84 50.26 123.96 14.82"/><polygon class="cls-167" points="124.1 15.31 124.3 15.99 2.18 51.42 1.96 50.74 124.1 15.31"/><polygon class="cls-168" points="124.24 15.76 124.44 16.47 2.3 51.9 2.1 51.19 124.24 15.76"/><polygon class="cls-169" points="124.38 16.24 124.58 16.92 2.44 52.36 2.24 51.65 124.38 16.24"/><polygon class="cls-170" points="124.5 16.7 124.72 17.41 2.58 52.81 2.38 52.13 124.5 16.7"/><polygon class="cls-171" points="124.64 17.15 124.84 17.86 2.72 53.29 2.49 52.58 124.64 17.15"/><polygon class="cls-172" points="124.78 17.63 124.98 18.31 2.83 53.74 2.64 53.06 124.78 17.63"/><polygon class="cls-172" points="124.92 18.09 125.12 18.79 2.98 54.23 2.78 53.52 124.92 18.09"/><polygon class="cls-173" points="125.04 18.57 125.26 19.25 3.12 54.68 2.92 53.97 125.04 18.57"/><polygon class="cls-173" points="125.18 19.02 125.38 19.73 3.26 55.13 3.06 54.45 125.18 19.02"/><polygon class="cls-173" points="125.32 19.47 125.52 20.18 3.37 55.62 3.17 54.91 125.32 19.47"/><polygon class="cls-174" points="125.46 19.96 125.66 20.64 3.52 56.07 3.32 55.39 125.46 19.96"/><polygon class="cls-175" points="125.58 20.41 125.8 21.12 3.66 56.55 3.46 55.84 125.58 20.41"/><polygon class="cls-176" points="125.72 20.89 125.92 21.57 3.8 57.01 3.6 56.3 125.72 20.89"/><polygon class="cls-177" points="125.86 21.34 126.06 22.05 3.91 57.46 3.71 56.78 125.86 21.34"/><polygon class="cls-177" points="126 21.8 126.2 22.51 4.05 57.94 3.85 57.23 126 21.8"/><polygon class="cls-178" points="126.11 22.28 126.34 22.96 4.2 58.39 4 57.71 126.11 22.28"/><polygon class="cls-178" points="126.25 22.73 126.45 23.44 4.34 58.88 4.14 58.17 126.25 22.73"/><polygon class="cls-179" points="126.4 23.22 126.59 23.9 4.45 59.33 4.25 58.62 126.4 23.22"/><polygon class="cls-180" points="126.54 23.67 126.74 24.38 4.59 59.78 4.39 59.1 126.54 23.67"/><polygon class="cls-181" points="126.68 24.12 126.88 24.83 4.73 60.27 4.54 59.56 126.68 24.12"/><polygon class="cls-182" points="126.79 24.61 126.99 25.29 4.88 60.72 4.68 60.04 126.79 24.61"/><polygon class="cls-183" points="126.94 25.06 127.13 25.77 5.02 61.2 4.79 60.49 126.94 25.06"/><polygon class="cls-184" points="127.08 25.54 127.28 26.22 5.13 61.65 4.93 60.95 127.08 25.54"/><polygon class="cls-184" points="127.22 25.99 127.42 26.7 5.27 62.11 5.07 61.43 127.22 25.99"/><polygon class="cls-185" points="127.33 26.45 127.53 27.16 5.41 62.59 5.22 61.88 127.33 26.45"/><polygon class="cls-186" points="127.47 26.93 127.67 27.61 5.56 63.04 5.33 62.36 127.47 26.93"/><polygon class="cls-187" points="127.62 27.38 127.81 28.09 5.67 63.52 5.47 62.82 127.62 27.38"/><polygon class="cls-188" points="127.76 27.86 127.96 28.55 5.81 63.98 5.61 63.27 127.76 27.86"/><polygon class="cls-188" points="127.87 28.32 128.07 29.03 5.95 64.43 5.75 63.75 127.87 28.32"/><polygon class="cls-188" points="128.01 28.77 128.21 29.48 6.09 64.91 5.87 64.2 128.01 28.77"/><polygon class="cls-189" points="128.15 29.25 128.35 29.93 6.21 65.37 6.01 64.69 128.15 29.25"/><polygon class="cls-189" points="128.3 29.71 128.49 30.42 6.35 65.85 6.15 65.14 128.3 29.71"/><polygon class="cls-190" points="128.41 30.19 128.64 30.87 6.49 66.3 6.29 65.59 128.41 30.19"/><polygon class="cls-191" points="128.55 30.64 128.75 31.35 6.63 66.78 6.41 66.08 128.55 30.64"/><polygon class="cls-192" points="128.69 31.12 128.89 31.8 6.75 67.24 6.55 66.53 128.69 31.12"/><polygon class="cls-193" points="128.84 31.58 129.03 32.29 6.89 67.69 6.69 67.01 128.84 31.58"/><polygon class="cls-194" points="128.95 32.03 129.18 32.74 7.03 68.17 6.83 67.47 128.95 32.03"/><polygon class="cls-195" points="129.09 32.51 129.29 33.19 7.17 68.63 6.97 67.95 129.09 32.51"/><polygon class="cls-196" points="129.23 32.97 129.43 33.68 7.29 69.11 7.09 68.4 129.23 32.97"/><polygon class="cls-197" points="129.37 33.45 129.57 34.13 7.43 69.56 7.23 68.85 129.37 33.45"/><polygon class="cls-198" points="129.49 33.9 129.71 34.61 7.57 70.02 7.37 69.33 129.49 33.9"/><polygon class="cls-198" points="129.63 34.36 129.83 35.06 7.71 70.5 7.51 69.79 129.63 34.36"/><polygon class="cls-199" points="129.77 34.84 129.97 35.52 7.82 70.95 7.63 70.27 129.77 34.84"/><polygon class="cls-199" points="129.91 35.29 130.11 36 7.96 71.43 7.77 70.72 129.91 35.29"/><polygon class="cls-199" points="130.03 35.77 130.25 36.45 8.11 71.89 7.91 71.18 130.03 35.77"/><polygon class="cls-200" points="130.17 36.23 130.37 36.94 8.25 72.34 8.05 71.66 130.17 36.23"/><polygon class="cls-201" points="130.31 36.68 130.51 37.39 8.36 72.82 8.16 72.11 130.31 36.68"/><polygon class="cls-202" points="130.45 37.16 130.65 37.84 8.5 73.28 8.31 72.59 130.45 37.16"/><polygon class="cls-203" points="130.59 37.62 130.79 38.32 8.65 73.76 8.45 73.05 130.59 37.62"/><polygon class="cls-203" points="130.71 38.1 130.9 38.78 8.79 74.21 8.59 73.5 130.71 38.1"/><polygon class="cls-204" points="130.85 38.55 131.05 39.26 8.93 74.67 8.7 73.98 130.85 38.55"/><polygon class="cls-205" points="130.99 39.01 131.19 39.71 9.04 75.15 8.84 74.44 130.99 39.01"/><polygon class="cls-206" points="131.13 39.49 131.33 40.17 9.18 75.6 8.99 74.92 131.13 39.49"/><polygon class="cls-207" points="131.24 39.94 131.44 40.65 9.33 76.08 9.13 75.37 131.24 39.94"/><polygon class="cls-208" points="131.39 40.42 131.58 41.1 9.47 76.53 9.24 75.83 131.39 40.42"/><polygon class="cls-209" points="131.53 40.88 131.73 41.58 9.58 76.99 9.38 76.31 131.53 40.88"/><polygon class="cls-209" points="131.67 41.33 131.87 42.04 9.72 77.47 9.52 76.76 131.67 41.33"/><polygon class="cls-210" points="131.78 41.81 131.98 42.49 9.87 77.92 9.67 77.24 131.78 41.81"/><polygon class="cls-210" points="131.92 42.27 132.12 42.97 10.01 78.41 9.78 77.7 131.92 42.27"/><polygon class="cls-211" points="132.07 42.75 132.26 43.43 10.12 78.86 9.92 78.15 132.07 42.75"/><polygon class="cls-212" points="132.21 43.2 132.41 43.91 10.26 79.31 10.06 78.63 132.21 43.2"/><polygon class="cls-213" points="132.32 43.65 132.55 44.36 10.4 79.8 10.21 79.09 132.32 43.65"/><polygon class="cls-214" points="132.46 44.13 132.66 44.82 10.54 80.25 10.32 79.57 132.46 44.13"/><polygon class="cls-214" points="132.6 44.59 132.8 45.3 10.66 80.73 10.46 80.02 132.6 44.59"/><polygon class="cls-214" points="132.75 45.07 132.94 45.75 10.8 81.18 10.6 80.48 132.75 45.07"/><polygon class="cls-215" points="132.86 45.52 133.09 46.23 10.94 81.64 10.74 80.96 132.86 45.52"/><polygon class="cls-215" points="133 45.98 133.2 46.69 11.08 82.12 10.88 81.41 133 45.98"/><polygon class="cls-216" points="133.14 46.46 133.34 47.14 11.2 82.57 11 81.89 133.14 46.46"/><polygon class="cls-217" points="133.28 46.91 133.48 47.62 11.34 83.06 11.14 82.35 133.28 46.91"/><polygon class="cls-218" points="133.4 47.4 133.63 48.08 11.48 83.51 11.28 82.8 133.4 47.4"/><polygon class="cls-219" points="133.54 47.85 133.74 48.56 11.62 83.96 11.42 83.28 133.54 47.85"/><polygon class="cls-220" points="133.68 48.3 133.88 49.01 11.73 84.44 11.54 83.73 133.68 48.3"/><polygon class="cls-221" points="133.82 48.78 134.02 49.47 11.88 84.9 11.68 84.22 133.82 48.78"/><polygon class="cls-222" points="133.94 49.24 134.16 49.95 12.02 85.38 11.82 84.67 133.94 49.24"/><polygon class="cls-223" points="134.08 49.72 134.28 50.4 12.16 85.83 11.96 85.12 134.08 49.72"/><polygon class="cls-224" points="134.22 50.17 134.42 50.88 12.27 86.29 12.08 85.61 134.22 50.17"/><polygon class="cls-224" points="134.36 50.63 134.56 51.34 12.42 86.77 12.22 86.06 134.36 50.63"/><polygon class="cls-225" points="134.5 51.11 134.7 51.79 12.56 87.22 12.36 86.54 134.5 51.11"/><polygon class="cls-225" points="134.62 51.56 134.82 52.27 12.7 87.7 12.5 87 134.62 51.56"/><polygon class="cls-225" points="134.76 52.04 134.96 52.72 12.81 88.16 12.61 87.45 134.76 52.04"/><polygon class="cls-226" points="134.9 52.5 135.1 53.21 12.95 88.61 12.76 87.93 134.9 52.5"/><polygon class="cls-226" points="135.04 52.98 135.24 53.66 13.1 89.09 12.9 88.38 135.04 52.98"/><polygon class="cls-227" points="135.16 53.43 135.35 54.14 13.24 89.55 13.04 88.87 135.16 53.43"/><polygon class="cls-228" points="135.3 53.89 135.5 54.59 13.38 90.03 13.15 89.32 135.3 53.89"/><polygon class="cls-229" points="135.44 54.37 135.64 55.05 13.49 90.48 13.29 89.8 135.44 54.37"/><polygon class="cls-230" points="135.58 54.82 135.78 55.53 13.63 90.96 13.44 90.25 135.58 54.82"/><polygon class="cls-231" points="135.69 55.3 135.89 55.98 13.78 91.42 13.58 90.71 135.69 55.3"/><polygon class="cls-232" points="135.84 55.76 136.03 56.47 13.92 91.87 13.69 91.19 135.84 55.76"/><polygon class="cls-233" points="135.98 56.21 136.18 56.92 14.03 92.35 13.83 91.64 135.98 56.21"/><polygon class="cls-234" points="136.12 56.69 136.32 57.37 14.17 92.81 13.97 92.13 136.12 56.69"/><polygon class="cls-235" points="136.23 57.15 136.46 57.85 14.31 93.29 14.12 92.58 136.23 57.15"/><polygon class="cls-235" points="136.38 57.63 136.57 58.31 14.46 93.74 14.23 93.03 136.38 57.63"/><polygon class="cls-236" points="136.52 58.08 136.72 58.79 14.57 94.19 14.37 93.52 136.52 58.08"/><polygon class="cls-236" points="136.66 58.53 136.86 59.24 14.71 94.68 14.51 93.97 136.66 58.53"/><polygon class="cls-236" points="136.77 59.02 137 59.7 14.85 95.13 14.65 94.45 136.77 59.02"/><polygon class="cls-237" points="136.91 59.47 137.11 60.18 14.99 95.61 14.77 94.9 136.91 59.47"/><polygon class="cls-238" points="137.06 59.95 137.25 60.63 15.11 96.07 14.91 95.36 137.06 59.95"/><polygon class="cls-239" points="137.2 60.41 137.4 61.12 15.25 96.52 15.05 95.84 137.2 60.41"/><polygon class="cls-240" points="137.31 60.86 137.54 61.57 15.39 97 15.19 96.29 137.31 60.86"/><polygon class="cls-240" points="137.45 61.34 137.65 62.02 15.53 97.45 15.34 96.78 137.45 61.34"/><polygon class="cls-241" points="137.59 61.8 137.79 62.5 15.65 97.94 15.45 97.23 137.59 61.8"/><polygon class="cls-241" points="137.74 62.28 137.93 62.96 15.79 98.39 15.59 97.68 137.74 62.28"/><polygon class="cls-242" points="137.85 62.73 138.08 63.44 15.93 98.84 15.73 98.16 137.85 62.73"/><polygon class="cls-243" points="137.99 63.18 138.19 63.89 16.07 99.33 15.87 98.62 137.99 63.18"/><polygon class="cls-244" points="138.13 63.67 138.33 64.35 16.19 99.78 15.99 99.1 138.13 63.67"/><polygon class="cls-245" points="138.27 64.12 138.47 64.83 16.33 100.26 16.13 99.55 138.27 64.12"/><polygon class="cls-246" points="138.39 64.6 138.61 65.28 16.47 100.72 16.27 100.01 138.39 64.6"/><polygon class="cls-247" points="138.53 65.06 138.73 65.76 16.61 101.17 16.41 100.49 138.53 65.06"/><polygon class="cls-247" points="138.67 65.51 138.87 66.22 16.72 101.65 16.53 100.94 138.67 65.51"/><polygon class="cls-248" points="138.81 65.99 139.01 66.67 16.87 102.1 16.67 101.42 138.81 65.99"/><polygon class="cls-249" points="138.95 66.44 139.15 67.15 17.01 102.59 16.81 101.88 138.95 66.44"/><polygon class="cls-250" points="139.07 66.93 139.27 67.61 17.15 103.04 16.95 102.33 139.07 66.93"/><polygon class="cls-251" points="139.21 67.38 139.41 68.09 17.29 103.49 17.07 102.81 139.21 67.38"/><polygon class="cls-251" points="139.35 67.83 139.55 68.54 17.41 103.97 17.21 103.27 139.35 67.83"/><polygon class="cls-251" points="139.49 68.31 139.69 69 17.55 104.43 17.35 103.75 139.49 68.31"/><polygon class="cls-252" points="139.61 68.77 139.81 69.48 17.69 104.91 17.49 104.2 139.61 68.77"/><polygon class="cls-252" points="139.75 69.25 139.95 69.93 17.83 105.36 17.6 104.66 139.75 69.25"/><polygon class="cls-253" points="139.89 69.7 140.09 70.41 17.94 105.82 17.75 105.14 139.89 69.7"/><polygon class="cls-254" points="140.03 70.16 140.23 70.87 18.09 106.3 17.89 105.59 140.03 70.16"/><polygon class="cls-255" points="140.15 70.64 140.34 71.32 18.23 106.75 18.03 106.07 140.15 70.64"/><polygon class="cls-256" points="140.29 71.09 140.49 71.8 18.37 107.23 18.14 106.53 140.29 71.09"/><polygon class="cls-257" points="140.43 71.58 140.63 72.25 18.48 107.69 18.28 106.98 140.43 71.58"/><polygon class="cls-258" points="140.57 72.03 140.77 72.74 18.62 108.14 18.43 107.46 140.57 72.03"/><polygon class="cls-259" points="140.68 72.48 140.91 73.19 18.77 108.62 18.57 107.92 140.68 72.48"/><polygon class="cls-260" points="140.82 72.96 141.02 73.64 18.91 109.08 18.68 108.4 140.82 72.96"/><polygon class="cls-261" points="140.97 73.42 141.16 74.13 19.02 109.56 18.82 108.85 140.97 73.42"/><polygon class="cls-261" points="141.11 73.9 141.31 74.58 19.16 110.01 18.96 109.3 141.11 73.9"/><polygon class="cls-262" points="141.22 74.35 141.45 75.06 19.3 110.47 19.11 109.79 141.22 74.35"/><polygon class="cls-262" points="141.36 74.81 141.56 75.52 19.45 110.95 19.25 110.24 141.36 74.81"/><polygon class="cls-262" points="141.51 75.29 141.7 76 19.56 111.4 19.36 110.72 141.51 75.29"/><polygon class="cls-263" points="141.65 75.74 141.85 76.45 19.7 111.88 19.5 111.17 141.65 75.74"/><polygon class="cls-264" points="141.76 76.22 141.99 76.9 19.84 112.34 19.64 111.66 141.76 76.22"/><polygon class="cls-265" points="141.9 76.68 142.1 77.39 19.98 112.82 19.79 112.11 141.9 76.68"/><polygon class="cls-266" points="142.04 77.16 142.24 77.84 20.1 113.27 19.9 112.56 142.04 77.16"/><polygon class="cls-266" points="142.19 77.61 142.38 78.32 20.24 113.73 20.04 113.05 142.19 77.61"/><polygon class="cls-267" points="142.3 78.07 142.53 78.78 20.38 114.21 20.18 113.5 142.3 78.07"/><polygon class="cls-268" points="142.44 78.55 142.64 79.23 20.52 114.66 20.32 113.98 142.44 78.55"/><polygon class="cls-269" points="142.58 79 142.78 79.71 20.64 115.14 20.44 114.44 142.58 79"/><polygon class="cls-270" points="142.72 79.48 142.92 80.16 20.78 115.6 20.58 114.89 142.72 79.48"/><polygon class="cls-271" points="142.87 79.94 143.06 80.65 20.92 116.05 20.72 115.37 142.87 79.94"/><polygon class="cls-272" points="142.98 80.39 143.18 81.1 21.06 116.53 20.86 115.82 142.98 80.39"/><polygon class="cls-272" points="143.12 80.87 143.32 81.55 21.2 116.99 20.98 116.31 143.12 80.87"/><polygon class="cls-273" points="143.26 81.33 143.46 82.03 21.32 117.47 21.12 116.76 143.26 81.33"/><polygon class="cls-273" points="143.41 81.81 143.6 82.49 21.46 117.92 21.26 117.21 143.41 81.81"/><polygon class="cls-274" points="143.52 82.26 143.72 82.97 21.6 118.38 21.4 117.69 143.52 82.26"/><polygon class="cls-275" points="143.66 82.72 143.86 83.42 21.74 118.86 21.52 118.15 143.66 82.72"/><polygon class="cls-276" points="143.8 83.2 144 83.88 21.86 119.31 21.66 118.63 143.8 83.2"/><polygon class="cls-277" points="143.94 83.65 144.14 84.36 22 119.79 21.8 119.08 143.94 83.65"/><polygon class="cls-277" points="144.06 84.13 144.25 84.81 22.14 120.25 21.94 119.54 144.06 84.13"/><polygon class="cls-277" points="144.2 84.59 144.4 85.29 22.28 120.7 22.05 120.02 144.2 84.59"/><polygon class="cls-278" points="144.34 85.04 144.54 85.75 22.39 121.18 22.2 120.47 144.34 85.04"/><polygon class="cls-278" points="144.48 85.52 144.68 86.2 22.54 121.64 22.34 120.95 144.48 85.52"/><polygon class="cls-279" points="144.59 85.97 144.82 86.68 22.68 122.12 22.48 121.41 144.59 85.97"/><polygon class="cls-280" points="144.74 86.46 144.94 87.14 22.82 122.57 22.59 121.86 144.74 86.46"/><polygon class="cls-281" points="144.88 86.91 145.08 87.62 22.93 123.02 22.73 122.34 144.88 86.91"/><polygon class="cls-282" points="145.02 87.36 145.22 88.07 23.07 123.51 22.88 122.8 145.02 87.36"/><polygon class="cls-283" points="145.13 87.85 145.36 88.53 23.22 123.96 23.02 123.28 145.13 87.85"/><polygon class="cls-284" points="145.28 88.3 145.47 89.01 23.36 124.44 23.16 123.73 145.28 88.3"/><polygon class="cls-285" points="145.42 88.78 145.62 89.46 23.47 124.89 23.27 124.19 145.42 88.78"/><polygon class="cls-286" points="145.56 89.23 145.76 89.94 23.61 125.35 23.41 124.67 145.56 89.23"/><polygon class="cls-287" points="145.67 89.69 145.9 90.4 23.75 125.83 23.56 125.12 145.67 89.69"/><polygon class="cls-287" points="145.81 90.17 146.01 90.85 23.9 126.28 23.7 125.6 145.81 90.17"/><polygon class="cls-288" points="145.96 90.62 146.15 91.33 24.01 126.77 23.81 126.06 145.96 90.62"/><polygon class="cls-288" points="146.1 91.11 146.3 91.79 24.15 127.22 23.95 126.51 146.1 91.11"/><polygon class="cls-288" points="146.21 91.56 146.44 92.27 24.29 127.67 24.09 126.99 146.21 91.56"/><polygon class="cls-289" points="146.35 92.01 146.55 92.72 24.43 128.15 24.24 127.45 146.35 92.01"/><polygon class="cls-289" points="146.49 92.49 146.69 93.17 24.55 128.61 24.35 127.93 146.49 92.49"/><polygon class="cls-290" points="146.64 92.95 146.84 93.66 24.69 129.09 24.49 128.38 146.64 92.95"/><polygon class="cls-291" points="146.78 93.43 146.98 94.11 24.83 129.54 24.63 128.84 146.78 93.43"/><polygon class="cls-292" points="146.89 93.88 147.09 94.59 24.97 130 24.77 129.32 146.89 93.88"/><polygon class="cls-293" points="147.03 94.34 147.23 95.05 25.11 130.48 24.89 129.77 147.03 94.34"/><polygon class="cls-294" points="147.18 94.82 147.37 95.5 25.23 130.93 25.03 130.25 147.18 94.82"/><polygon class="cls-295" points="147.32 95.27 147.51 95.98 25.37 131.41 25.17 130.71 147.32 95.27"/><polygon class="cls-296" points="147.43 95.75 147.63 96.44 25.51 131.87 25.31 131.16 147.43 95.75"/><polygon class="cls-297" points="147.57 96.21 147.77 96.92 25.65 132.32 25.43 131.64 147.57 96.21"/><polygon class="cls-298" points="147.71 96.66 147.91 97.37 25.77 132.8 25.57 132.09 147.71 96.66"/><polygon class="cls-298" points="147.85 97.14 148.05 97.82 25.91 133.26 25.71 132.58 147.85 97.14"/><polygon class="cls-299" points="147.97 97.6 148.17 98.31 26.05 133.74 25.85 133.03 147.97 97.6"/><polygon class="cls-299" points="148.11 98.08 148.31 98.76 26.19 134.19 25.96 133.48 148.11 98.08"/><polygon class="cls-299" points="148.25 98.53 148.45 99.24 26.31 134.67 26.11 133.97 148.25 98.53"/><polygon class="cls-300" points="148.39 99.01 148.59 99.69 26.45 135.13 26.25 134.42 148.39 99.01"/><polygon class="cls-301" points="148.51 99.47 148.73 100.18 26.59 135.58 26.39 134.9 148.51 99.47"/><polygon class="cls-302" points="148.65 99.92 148.85 100.63 26.73 136.06 26.5 135.35 148.65 99.92"/><polygon class="cls-303" points="148.79 100.4 148.99 101.08 26.84 136.52 26.65 135.84 148.79 100.4"/><polygon class="cls-303" points="148.93 100.86 149.13 101.56 26.99 137 26.79 136.29 148.93 100.86"/><polygon class="cls-304" points="149.05 101.34 149.27 102.02 27.13 137.45 26.93 136.74 149.05 101.34"/><polygon class="cls-304" points="149.19 101.79 149.39 102.5 27.27 137.91 27.07 137.22 149.19 101.79"/><polygon class="cls-305" points="149.33 102.25 149.53 102.95 27.38 138.39 27.18 137.68 149.33 102.25"/><polygon class="cls-306" points="149.47 102.73 149.67 103.41 27.52 138.84 27.33 138.16 149.47 102.73"/><polygon class="cls-307" points="149.58 103.18 149.81 103.89 27.67 139.32 27.47 138.61 149.58 103.18"/><polygon class="cls-308" points="149.73 103.66 149.92 104.34 27.81 139.78 27.61 139.07 149.73 103.66"/><polygon class="cls-309" points="149.87 104.12 150.07 104.83 27.92 140.23 27.72 139.55 149.87 104.12"/><polygon class="cls-310" points="150.01 104.57 150.21 105.28 28.06 140.71 27.86 140 150.01 104.57"/><polygon class="cls-310" points="150.12 105.05 150.35 105.73 28.2 141.16 28.01 140.49 150.12 105.05"/><polygon class="cls-311" points="150.26 105.51 150.46 106.21 28.35 141.65 28.15 140.94 150.26 105.51"/><polygon class="cls-312" points="150.41 105.99 150.6 106.67 28.46 142.1 28.26 141.39 150.41 105.99"/><polygon class="cls-313" points="150.55 106.44 150.75 107.15 28.6 142.55 28.4 141.87 150.55 106.44"/><polygon class="cls-314" points="150.66 106.89 150.89 107.6 28.74 143.04 28.55 142.33 150.66 106.89"/><polygon class="cls-314" points="150.8 107.38 151 108.06 28.89 143.49 28.69 142.81 150.8 107.38"/><polygon class="cls-314" points="150.94 107.83 151.14 108.54 29 143.97 28.8 143.26 150.94 107.83"/><polygon class="cls-315" points="151.09 108.31 151.28 108.99 29.14 144.43 28.94 143.72 151.09 108.31"/><polygon class="cls-315" points="151.23 108.77 151.43 109.47 29.28 144.88 29.08 144.2 151.23 108.77"/><polygon class="cls-316" points="151.34 109.22 151.54 109.93 29.42 145.36 29.23 144.65 151.34 109.22"/><polygon class="cls-317" points="151.48 109.7 151.68 110.38 29.57 145.81 29.34 145.13 151.48 109.7"/><polygon class="cls-318" points="151.63 110.15 151.82 110.86 29.68 146.3 29.48 145.59 151.63 110.15"/><polygon class="cls-319" points="151.77 110.64 151.97 111.32 29.82 146.75 29.62 146.04 151.77 110.64"/><polygon class="cls-320" points="151.88 111.09 152.08 111.8 29.96 147.2 29.76 146.52 151.88 111.09"/><polygon class="cls-321" points="152.02 111.54 152.22 112.25 30.1 147.69 29.88 146.98 152.02 111.54"/><polygon class="cls-322" points="152.16 112.03 152.36 112.71 30.22 148.14 30.02 147.46 152.16 112.03"/><polygon class="cls-323" points="152.31 112.48 152.5 113.19 30.36 148.62 30.16 147.91 152.31 112.48"/><polygon class="cls-324" points="152.42 112.96 152.62 113.64 30.5 149.07 30.3 148.37 152.42 112.96"/><polygon class="cls-324" points="152.56 113.41 152.76 114.12 30.64 149.53 30.42 148.85 152.56 113.41"/><polygon class="cls-325" points="152.7 113.87 152.9 114.58 30.76 150.01 30.56 149.3 152.7 113.87"/><polygon class="cls-325" points="152.84 114.35 153.04 115.03 30.9 150.46 30.7 149.78 152.84 114.35"/><polygon class="cls-325" points="152.96 114.8 153.18 115.51 31.04 150.94 30.84 150.24 152.96 114.8"/><polygon class="cls-326" points="153.1 115.28 153.3 115.97 31.18 151.4 30.95 150.69 153.1 115.28"/><polygon class="cls-327" points="153.24 115.74 153.44 116.45 31.29 151.85 31.1 151.17 153.24 115.74"/><polygon class="cls-328" points="153.38 116.19 153.58 116.9 31.44 152.33 31.24 151.63 153.38 116.19"/><polygon class="cls-329" points="153.5 116.67 153.72 117.35 31.58 152.79 31.38 152.11 153.5 116.67"/><polygon class="cls-329" points="153.64 117.13 153.84 117.84 31.72 153.27 31.52 152.56 153.64 117.13"/><polygon class="cls-330" points="153.78 117.61 153.98 118.29 31.83 153.72 31.64 153.01 153.78 117.61"/><polygon class="cls-331" points="153.92 118.06 154.12 118.77 31.98 154.18 31.78 153.5 153.92 118.06"/><polygon class="cls-332" points="154.03 118.52 154.26 119.22 32.12 154.66 31.92 153.95 154.03 118.52"/><polygon class="cls-333" points="154.18 119 154.38 119.68 32.26 155.11 32.06 154.43 154.18 119"/><polygon class="cls-334" points="154.32 119.45 154.52 120.16 32.37 155.59 32.17 154.88 154.32 119.45"/><polygon class="cls-335" points="154.46 119.93 154.66 120.61 32.51 156.05 32.31 155.34 154.46 119.93"/><polygon class="cls-335" points="154.57 120.39 154.8 121.1 32.66 156.5 32.46 155.82 154.57 120.39"/><polygon class="cls-336" points="154.72 120.87 154.91 121.55 32.8 156.98 32.6 156.27 154.72 120.87"/><polygon class="cls-336" points="154.86 121.32 155.06 122.03 32.91 157.44 32.71 156.76 154.86 121.32"/><polygon class="cls-337" points="155 121.78 155.2 122.48 33.05 157.92 32.85 157.21 155 121.78"/><polygon class="cls-338" points="155.14 122.26 155.34 122.94 33.19 158.37 32.99 157.69 155.14 122.26"/><polygon class="cls-339" points="155.25 122.71 155.45 123.42 33.34 158.85 33.14 158.15 155.25 122.71"/><polygon class="cls-340" points="155.4 123.19 155.59 123.87 33.48 159.31 33.25 158.6 155.4 123.19"/><polygon class="cls-340" points="155.54 123.65 155.74 124.36 33.59 159.76 33.39 159.08 155.54 123.65"/><polygon class="cls-340" points="155.68 124.1 155.88 124.81 33.73 160.24 33.53 159.53 155.68 124.1"/><polygon class="cls-341" points="155.79 124.58 155.99 125.26 33.87 160.7 33.68 160.02 155.79 124.58"/><polygon class="cls-341" points="155.93 125.04 156.13 125.75 34.02 161.18 33.79 160.47 155.93 125.04"/><polygon class="cls-342" points="156.08 125.52 156.27 126.2 34.13 161.63 33.93 160.92 156.08 125.52"/><polygon class="cls-343" points="156.22 125.97 156.42 126.68 34.27 162.09 34.07 161.41 156.22 125.97"/><polygon class="cls-344" points="156.33 126.42 156.53 127.13 34.41 162.57 34.21 161.86 156.33 126.42"/><polygon class="cls-345" points="156.47 126.91 156.67 127.59 34.55 163.02 34.33 162.34 156.47 126.91"/><polygon class="cls-346" points="156.61 127.36 156.81 128.07 34.67 163.5 34.47 162.79 156.61 127.36"/><polygon class="cls-347" points="156.76 127.84 156.95 128.52 34.81 163.96 34.61 163.25 156.76 127.84"/><polygon class="cls-348" points="156.87 128.3 157.1 129 34.95 164.41 34.75 163.73 156.87 128.3"/><polygon class="cls-349" points="157.01 128.75 157.21 129.46 35.09 164.89 34.87 164.18 157.01 128.75"/><polygon class="cls-350" points="157.15 129.23 157.35 129.91 35.21 165.34 35.01 164.66 157.15 129.23"/><polygon class="cls-350" points="157.29 129.69 157.18 129.34 35.06 164.78 35.15 165.12 157.29 129.69"/></g></svg>