<?xml version="1.0" encoding="utf-8"?>
<svg viewBox="750 450 260 300" width="260" height="300" xmlns="http://www.w3.org/2000/svg">
  <defs>
    <clipPath id="clip-path-2" transform="translate(-789.11 -913.77)">
      <polygon class="cls-2" points="852.07 1056.89 852.07 1056.89 852.07 1056.89 847.45 1054.23 847.45 1054.23 847.45 1054.23 842.8 1051.53 842.8 1051.53 842.8 1051.53 830.13 1044.22 830.13 1044.22 830.13 1044.22 825.48 1041.56 825.48 1041.56 825.48 1041.56 820.86 1038.86 820.86 1038.86 820.86 1038.86 810.99 1033.19 810.99 1000.45 810.99 1000.45 810.99 967.68 813.57 966.21 813.57 966.21 813.57 966.21 818.22 963.52 818.22 963.52 818.22 963.52 822.84 960.85 822.87 960.85 822.87 960.85 827.49 958.16 827.49 958.16 827.49 958.16 839.37 951.33 839.37 951.33 865.25 936.39 867.71 934.95 872.25 937.55 885.29 945.09 885.29 949.54 885.29 1000.42 885.29 1000.45 885.29 1010.57 883.39 1011.68 883.39 1011.68 883.39 1011.68 876.5 1015.65 876.5 1015.68 869.33 1019.79 869.33 1019.79 867.69 1020.75 850.17 1010.63 850.11 1010.6 850.11 1001.64 840.13 995.86 840.13 1000.42 840.13 1000.42 840.13 1016.36 845.18 1019.28 845.18 1019.28 845.18 1019.28 853.91 1024.32 853.94 1024.29 867.71 1032.26 882.85 1023.53 882.85 1023.53 882.85 1023.53 890.9 1018.88 890.9 1018.88 890.9 1018.88 894.3 1016.92 894.3 1016.92 894.3 1016.92 895.27 1016.36 895.27 1000.45 895.29 1000.42 895.29 962.1 895.29 950.85 896.06 951.3 896.06 951.33 905.1 956.54 905.1 964.37 905.1 981.69 905.1 982.62 905.1 1000.42 905.13 1000.42 905.13 1022.02 892.66 1029.22 892.66 1029.22 892.66 1029.22 888.04 1031.89 888.04 1031.89 888.04 1031.89 872.87 1040.65 872.87 1040.65 872.87 1040.65 868.22 1043.31 868.22 1043.31 868.22 1043.31 867.69 1043.65 865.3 1042.27 865.3 1042.27 865.3 1042.27 858.19 1038.15 858.19 1038.15 858.19 1038.15 849 1032.85 849 1032.83 844.55 1030.27 844.55 1030.27 844.55 1030.27 830.3 1022.02 830.3 1000.45 830.3 1000.42 830.3 978.83 840.13 984.52 842.37 985.8 842.37 985.8 842.37 985.8 850.14 990.28 859.98 995.98 859.98 1000.42 859.98 1000.42 859.98 1004.88 867.71 1009.35 871.57 1007.12 871.6 1007.14 873.24 1006.18 873.24 1006.18 873.24 1006.18 875.45 1004.9 875.45 1000.45 875.45 1000.45 875.45 950.79 873.21 949.51 873.21 949.51 873.21 949.51 867.69 946.31 847.67 957.88 847.67 957.88 847.67 957.88 844.27 959.83 844.27 959.86 840.42 962.1 840.42 962.1 840.42 962.1 837.01 964.06 837.01 964.06 837.01 964.06 832.37 966.72 832.37 966.72 832.37 966.72 828.96 968.68 828.96 968.68 828.96 968.68 824.34 971.37 824.34 971.37 824.34 971.37 820.94 973.33 820.94 973.33 820.94 973.33 820.86 973.38 820.86 1000.42 820.83 1000.45 820.83 1027.47 867.71 1054.54 891.16 1041.02 891.16 1041.02 896.68 1037.81 896.68 1037.81 896.68 1037.81 902.55 1034.44 902.55 1034.44 902.55 1034.44 909.7 1030.33 909.7 1030.33 909.7 1030.33 914.57 1027.5 914.57 1000.45 914.57 1000.45 914.57 987.5 914.57 962.02 924.41 967.71 924.41 1000.42 924.41 1000.45 924.41 1033.16 900.03 1047.25 900.03 1047.25 900.03 1047.25 896.06 1049.52 896.06 1049.55 868.34 1065.57 868.34 1065.57 868.34 1065.57 867.69 1065.93 852.07 1056.89" style="clip-rule: evenodd; fill: none;"/>
    </clipPath>
  </defs>
  <g class="cls-160" style="clip-path: url('#clip-path-2');" transform="matrix(2.292365074157715, 0, 0, 2.2904250621795654, 699.843017578125, 401.4888000488281)">
    <rect class="cls-161" x="787.2" y="939.95" width="127.17" height="4.37" transform="translate(-1018.18 -638.98) rotate(-16.2)" style="fill: rgb(153, 121, 66);"/>
    <polygon class="cls-162" points="123.31 12.5 123.51 13.21 1.36 48.64 1.16 47.93 123.31 12.5" style="fill: rgb(153, 121, 66); fill-rule: evenodd;"/>
    <polygon class="cls-163" points="123.42 12.98 123.62 13.66 1.5 49.1 1.3 48.42 123.42 12.98" style="fill: rgb(154, 122, 67); fill-rule: evenodd;"/>
    <polygon class="cls-163" points="123.56 13.44 123.76 14.14 1.64 49.58 1.42 48.87 123.56 13.44" style="fill: rgb(154, 122, 67); fill-rule: evenodd;"/>
    <polygon class="cls-164" points="123.7 13.92 123.9 14.6 1.76 50.03 1.56 49.32 123.7 13.92" style="fill: rgb(155, 122, 67); fill-rule: evenodd;"/>
    <polygon class="cls-165" points="123.85 14.37 124.04 15.08 1.9 50.48 1.7 49.8 123.85 14.37" style="fill: rgb(155, 123, 67); fill-rule: evenodd;"/>
    <polygon class="cls-166" points="123.96 14.82 124.16 15.53 2.04 50.97 1.84 50.26 123.96 14.82" style="fill: rgb(155, 123, 68); fill-rule: evenodd;"/>
    <polygon class="cls-167" points="124.1 15.31 124.3 15.99 2.18 51.42 1.96 50.74 124.1 15.31" style="fill: rgb(156, 123, 68); fill-rule: evenodd;"/>
    <polygon class="cls-168" points="124.24 15.76 124.44 16.47 2.3 51.9 2.1 51.19 124.24 15.76" style="fill: rgb(156, 124, 68); fill-rule: evenodd;"/>
    <polygon class="cls-169" points="124.38 16.24 124.58 16.92 2.44 52.36 2.24 51.65 124.38 16.24" style="fill: rgb(157, 124, 68); fill-rule: evenodd;"/>
    <polygon class="cls-170" points="124.5 16.7 124.72 17.41 2.58 52.81 2.38 52.13 124.5 16.7" style="fill: rgb(157, 124, 69); fill-rule: evenodd;"/>
    <polygon class="cls-171" points="124.64 17.15 124.84 17.86 2.72 53.29 2.49 52.58 124.64 17.15" style="fill: rgb(157, 125, 69); fill-rule: evenodd;"/>
    <polygon class="cls-172" points="124.78 17.63 124.98 18.31 2.83 53.74 2.64 53.06 124.78 17.63" style="fill: rgb(158, 125, 69); fill-rule: evenodd;"/>
    <polygon class="cls-172" points="124.92 18.09 125.12 18.79 2.98 54.23 2.78 53.52 124.92 18.09" style="fill: rgb(158, 125, 69); fill-rule: evenodd;"/>
    <polygon class="cls-173" points="125.04 18.57 125.26 19.25 3.12 54.68 2.92 53.97 125.04 18.57" style="fill: rgb(159, 126, 70); fill-rule: evenodd;"/>
    <polygon class="cls-173" points="125.18 19.02 125.38 19.73 3.26 55.13 3.06 54.45 125.18 19.02" style="fill: rgb(159, 126, 70); fill-rule: evenodd;"/>
    <polygon class="cls-173" points="125.32 19.47 125.52 20.18 3.37 55.62 3.17 54.91 125.32 19.47" style="fill: rgb(159, 126, 70); fill-rule: evenodd;"/>
    <polygon class="cls-174" points="125.46 19.96 125.66 20.64 3.52 56.07 3.32 55.39 125.46 19.96" style="fill: rgb(160, 127, 70); fill-rule: evenodd;"/>
    <polygon class="cls-175" points="125.58 20.41 125.8 21.12 3.66 56.55 3.46 55.84 125.58 20.41" style="fill: rgb(160, 127, 71); fill-rule: evenodd;"/>
    <polygon class="cls-176" points="125.72 20.89 125.92 21.57 3.8 57.01 3.6 56.3 125.72 20.89" style="fill: rgb(161, 127, 71); fill-rule: evenodd;"/>
    <polygon class="cls-177" points="125.86 21.34 126.06 22.05 3.91 57.46 3.71 56.78 125.86 21.34" style="fill: rgb(161, 128, 71); fill-rule: evenodd;"/>
    <polygon class="cls-177" points="126 21.8 126.2 22.51 4.05 57.94 3.85 57.23 126 21.8" style="fill: rgb(161, 128, 71); fill-rule: evenodd;"/>
    <polygon class="cls-178" points="126.11 22.28 126.34 22.96 4.2 58.39 4 57.71 126.11 22.28" style="fill: rgb(162, 129, 72); fill-rule: evenodd;"/>
    <polygon class="cls-178" points="126.25 22.73 126.45 23.44 4.34 58.88 4.14 58.17 126.25 22.73" style="fill: rgb(162, 129, 72); fill-rule: evenodd;"/>
    <polygon class="cls-179" points="126.4 23.22 126.59 23.9 4.45 59.33 4.25 58.62 126.4 23.22" style="fill: rgb(163, 129, 72); fill-rule: evenodd;"/>
    <polygon class="cls-180" points="126.54 23.67 126.74 24.38 4.59 59.78 4.39 59.1 126.54 23.67" style="fill: rgb(163, 130, 72); fill-rule: evenodd;"/>
    <polygon class="cls-181" points="126.68 24.12 126.88 24.83 4.73 60.27 4.54 59.56 126.68 24.12" style="fill: rgb(163, 130, 73); fill-rule: evenodd;"/>
    <polygon class="cls-182" points="126.79 24.61 126.99 25.29 4.88 60.72 4.68 60.04 126.79 24.61" style="fill: rgb(164, 130, 73); fill-rule: evenodd;"/>
    <polygon class="cls-183" points="126.94 25.06 127.13 25.77 5.02 61.2 4.79 60.49 126.94 25.06" style="fill: rgb(164, 131, 73); fill-rule: evenodd;"/>
    <polygon class="cls-184" points="127.08 25.54 127.28 26.22 5.13 61.65 4.93 60.95 127.08 25.54" style="fill: rgb(165, 131, 74); fill-rule: evenodd;"/>
    <polygon class="cls-184" points="127.22 25.99 127.42 26.7 5.27 62.11 5.07 61.43 127.22 25.99" style="fill: rgb(165, 131, 74); fill-rule: evenodd;"/>
    <polygon class="cls-185" points="127.33 26.45 127.53 27.16 5.41 62.59 5.22 61.88 127.33 26.45" style="fill: rgb(165, 132, 74); fill-rule: evenodd;"/>
    <polygon class="cls-186" points="127.47 26.93 127.67 27.61 5.56 63.04 5.33 62.36 127.47 26.93" style="fill: rgb(166, 132, 74); fill-rule: evenodd;"/>
    <polygon class="cls-187" points="127.62 27.38 127.81 28.09 5.67 63.52 5.47 62.82 127.62 27.38" style="fill: rgb(166, 132, 75); fill-rule: evenodd;"/>
    <polygon class="cls-188" points="127.76 27.86 127.96 28.55 5.81 63.98 5.61 63.27 127.76 27.86" style="fill: rgb(167, 133, 75); fill-rule: evenodd;"/>
    <polygon class="cls-188" points="127.87 28.32 128.07 29.03 5.95 64.43 5.75 63.75 127.87 28.32" style="fill: rgb(167, 133, 75); fill-rule: evenodd;"/>
    <polygon class="cls-188" points="128.01 28.77 128.21 29.48 6.09 64.91 5.87 64.2 128.01 28.77" style="fill: rgb(167, 133, 75); fill-rule: evenodd;"/>
    <polygon class="cls-189" points="128.15 29.25 128.35 29.93 6.21 65.37 6.01 64.69 128.15 29.25" style="fill: rgb(168, 134, 76); fill-rule: evenodd;"/>
    <polygon class="cls-189" points="128.3 29.71 128.49 30.42 6.35 65.85 6.15 65.14 128.3 29.71" style="fill: rgb(168, 134, 76); fill-rule: evenodd;"/>
    <polygon class="cls-190" points="128.41 30.19 128.64 30.87 6.49 66.3 6.29 65.59 128.41 30.19" style="fill: rgb(169, 134, 76); fill-rule: evenodd;"/>
    <polygon class="cls-191" points="128.55 30.64 128.75 31.35 6.63 66.78 6.41 66.08 128.55 30.64" style="fill: rgb(169, 135, 76); fill-rule: evenodd;"/>
    <polygon class="cls-192" points="128.69 31.12 128.89 31.8 6.75 67.24 6.55 66.53 128.69 31.12" style="fill: rgb(169, 135, 77); fill-rule: evenodd;"/>
    <polygon class="cls-193" points="128.84 31.58 129.03 32.29 6.89 67.69 6.69 67.01 128.84 31.58" style="fill: rgb(170, 135, 77); fill-rule: evenodd;"/>
    <polygon class="cls-194" points="128.95 32.03 129.18 32.74 7.03 68.17 6.83 67.47 128.95 32.03" style="fill: rgb(170, 136, 77); fill-rule: evenodd;"/>
    <polygon class="cls-195" points="129.09 32.51 129.29 33.19 7.17 68.63 6.97 67.95 129.09 32.51" style="fill: rgb(171, 136, 77); fill-rule: evenodd;"/>
    <polygon class="cls-196" points="129.23 32.97 129.43 33.68 7.29 69.11 7.09 68.4 129.23 32.97" style="fill: rgb(171, 136, 78); fill-rule: evenodd;"/>
    <polygon class="cls-197" points="129.37 33.45 129.57 34.13 7.43 69.56 7.23 68.85 129.37 33.45" style="fill: rgb(171, 137, 78); fill-rule: evenodd;"/>
    <polygon class="cls-198" points="129.49 33.9 129.71 34.61 7.57 70.02 7.37 69.33 129.49 33.9" style="fill: rgb(172, 137, 78); fill-rule: evenodd;"/>
    <polygon class="cls-198" points="129.63 34.36 129.83 35.06 7.71 70.5 7.51 69.79 129.63 34.36" style="fill: rgb(172, 137, 78); fill-rule: evenodd;"/>
    <polygon class="cls-199" points="129.77 34.84 129.97 35.52 7.82 70.95 7.63 70.27 129.77 34.84" style="fill: rgb(173, 138, 79); fill-rule: evenodd;"/>
    <polygon class="cls-199" points="129.91 35.29 130.11 36 7.96 71.43 7.77 70.72 129.91 35.29" style="fill: rgb(173, 138, 79); fill-rule: evenodd;"/>
    <polygon class="cls-199" points="130.03 35.77 130.25 36.45 8.11 71.89 7.91 71.18 130.03 35.77" style="fill: rgb(173, 138, 79); fill-rule: evenodd;"/>
    <polygon class="cls-200" points="130.17 36.23 130.37 36.94 8.25 72.34 8.05 71.66 130.17 36.23" style="fill: rgb(174, 139, 79); fill-rule: evenodd;"/>
    <polygon class="cls-201" points="130.31 36.68 130.51 37.39 8.36 72.82 8.16 72.11 130.31 36.68" style="fill: rgb(174, 139, 80); fill-rule: evenodd;"/>
    <polygon class="cls-202" points="130.45 37.16 130.65 37.84 8.5 73.28 8.31 72.59 130.45 37.16" style="fill: rgb(175, 139, 80); fill-rule: evenodd;"/>
    <polygon class="cls-203" points="130.59 37.62 130.79 38.32 8.65 73.76 8.45 73.05 130.59 37.62" style="fill: rgb(175, 140, 80); fill-rule: evenodd;"/>
    <polygon class="cls-203" points="130.71 38.1 130.9 38.78 8.79 74.21 8.59 73.5 130.71 38.1" style="fill: rgb(175, 140, 80); fill-rule: evenodd;"/>
    <polygon class="cls-204" points="130.85 38.55 131.05 39.26 8.93 74.67 8.7 73.98 130.85 38.55" style="fill: rgb(176, 140, 81); fill-rule: evenodd;"/>
    <polygon class="cls-205" points="130.99 39.01 131.19 39.71 9.04 75.15 8.84 74.44 130.99 39.01" style="fill: rgb(176, 141, 81); fill-rule: evenodd;"/>
    <polygon class="cls-206" points="131.13 39.49 131.33 40.17 9.18 75.6 8.99 74.92 131.13 39.49" style="fill: rgb(177, 141, 81); fill-rule: evenodd;"/>
    <polygon class="cls-207" points="131.24 39.94 131.44 40.65 9.33 76.08 9.13 75.37 131.24 39.94" style="fill: rgb(177, 141, 82); fill-rule: evenodd;"/>
    <polygon class="cls-208" points="131.39 40.42 131.58 41.1 9.47 76.53 9.24 75.83 131.39 40.42" style="fill: rgb(177, 142, 82); fill-rule: evenodd;"/>
    <polygon class="cls-209" points="131.53 40.88 131.73 41.58 9.58 76.99 9.38 76.31 131.53 40.88" style="fill: rgb(178, 142, 82); fill-rule: evenodd;"/>
    <polygon class="cls-209" points="131.67 41.33 131.87 42.04 9.72 77.47 9.52 76.76 131.67 41.33" style="fill: rgb(178, 142, 82); fill-rule: evenodd;"/>
    <polygon class="cls-210" points="131.78 41.81 131.98 42.49 9.87 77.92 9.67 77.24 131.78 41.81" style="fill: rgb(179, 143, 83); fill-rule: evenodd;"/>
    <polygon class="cls-210" points="131.92 42.27 132.12 42.97 10.01 78.41 9.78 77.7 131.92 42.27" style="fill: rgb(179, 143, 83); fill-rule: evenodd;"/>
    <polygon class="cls-211" points="132.07 42.75 132.26 43.43 10.12 78.86 9.92 78.15 132.07 42.75" style="fill: rgb(179, 144, 83); fill-rule: evenodd;"/>
    <polygon class="cls-212" points="132.21 43.2 132.41 43.91 10.26 79.31 10.06 78.63 132.21 43.2" style="fill: rgb(180, 144, 83); fill-rule: evenodd;"/>
    <polygon class="cls-213" points="132.32 43.65 132.55 44.36 10.4 79.8 10.21 79.09 132.32 43.65" style="fill: rgb(180, 144, 84); fill-rule: evenodd;"/>
    <polygon class="cls-214" points="132.46 44.13 132.66 44.82 10.54 80.25 10.32 79.57 132.46 44.13" style="fill: rgb(181, 145, 84); fill-rule: evenodd;"/>
    <polygon class="cls-214" points="132.6 44.59 132.8 45.3 10.66 80.73 10.46 80.02 132.6 44.59" style="fill: rgb(181, 145, 84); fill-rule: evenodd;"/>
    <polygon class="cls-214" points="132.75 45.07 132.94 45.75 10.8 81.18 10.6 80.48 132.75 45.07" style="fill: rgb(181, 145, 84); fill-rule: evenodd;"/>
    <polygon class="cls-215" points="132.86 45.52 133.09 46.23 10.94 81.64 10.74 80.96 132.86 45.52" style="fill: rgb(182, 146, 85); fill-rule: evenodd;"/>
    <polygon class="cls-215" points="133 45.98 133.2 46.69 11.08 82.12 10.88 81.41 133 45.98" style="fill: rgb(182, 146, 85); fill-rule: evenodd;"/>
    <polygon class="cls-216" points="133.14 46.46 133.34 47.14 11.2 82.57 11 81.89 133.14 46.46" style="fill: rgb(183, 146, 85); fill-rule: evenodd;"/>
    <polygon class="cls-217" points="133.28 46.91 133.48 47.62 11.34 83.06 11.14 82.35 133.28 46.91" style="fill: rgb(183, 147, 85); fill-rule: evenodd;"/>
    <polygon class="cls-218" points="133.4 47.4 133.63 48.08 11.48 83.51 11.28 82.8 133.4 47.4" style="fill: rgb(183, 147, 86); fill-rule: evenodd;"/>
    <polygon class="cls-219" points="133.54 47.85 133.74 48.56 11.62 83.96 11.42 83.28 133.54 47.85" style="fill: rgb(184, 147, 86); fill-rule: evenodd;"/>
    <polygon class="cls-220" points="133.68 48.3 133.88 49.01 11.73 84.44 11.54 83.73 133.68 48.3" style="fill: rgb(184, 148, 86); fill-rule: evenodd;"/>
    <polygon class="cls-221" points="133.82 48.78 134.02 49.47 11.88 84.9 11.68 84.22 133.82 48.78" style="fill: rgb(185, 148, 86); fill-rule: evenodd;"/>
    <polygon class="cls-222" points="133.94 49.24 134.16 49.95 12.02 85.38 11.82 84.67 133.94 49.24" style="fill: rgb(185, 148, 87); fill-rule: evenodd;"/>
    <polygon class="cls-223" points="134.08 49.72 134.28 50.4 12.16 85.83 11.96 85.12 134.08 49.72" style="fill: rgb(185, 149, 87); fill-rule: evenodd;"/>
    <polygon class="cls-224" points="134.22 50.17 134.42 50.88 12.27 86.29 12.08 85.61 134.22 50.17" style="fill: rgb(186, 149, 87); fill-rule: evenodd;"/>
    <polygon class="cls-224" points="134.36 50.63 134.56 51.34 12.42 86.77 12.22 86.06 134.36 50.63" style="fill: rgb(186, 149, 87); fill-rule: evenodd;"/>
    <polygon class="cls-225" points="134.5 51.11 134.7 51.79 12.56 87.22 12.36 86.54 134.5 51.11" style="fill: rgb(187, 150, 88); fill-rule: evenodd;"/>
    <polygon class="cls-225" points="134.62 51.56 134.82 52.27 12.7 87.7 12.5 87 134.62 51.56" style="fill: rgb(187, 150, 88); fill-rule: evenodd;"/>
    <polygon class="cls-225" points="134.76 52.04 134.96 52.72 12.81 88.16 12.61 87.45 134.76 52.04" style="fill: rgb(187, 150, 88); fill-rule: evenodd;"/>
    <polygon class="cls-226" points="134.9 52.5 135.1 53.21 12.95 88.61 12.76 87.93 134.9 52.5" style="fill: rgb(188, 151, 89); fill-rule: evenodd;"/>
    <polygon class="cls-226" points="135.04 52.98 135.24 53.66 13.1 89.09 12.9 88.38 135.04 52.98" style="fill: rgb(188, 151, 89); fill-rule: evenodd;"/>
    <polygon class="cls-227" points="135.16 53.43 135.35 54.14 13.24 89.55 13.04 88.87 135.16 53.43" style="fill: rgb(189, 151, 89); fill-rule: evenodd;"/>
    <polygon class="cls-228" points="135.3 53.89 135.5 54.59 13.38 90.03 13.15 89.32 135.3 53.89" style="fill: rgb(189, 152, 89); fill-rule: evenodd;"/>
    <polygon class="cls-229" points="135.44 54.37 135.64 55.05 13.49 90.48 13.29 89.8 135.44 54.37" style="fill: rgb(189, 152, 90); fill-rule: evenodd;"/>
    <polygon class="cls-230" points="135.58 54.82 135.78 55.53 13.63 90.96 13.44 90.25 135.58 54.82" style="fill: rgb(190, 152, 90); fill-rule: evenodd;"/>
    <polygon class="cls-231" points="135.69 55.3 135.89 55.98 13.78 91.42 13.58 90.71 135.69 55.3" style="fill: rgb(190, 153, 90); fill-rule: evenodd;"/>
    <polygon class="cls-232" points="135.84 55.76 136.03 56.47 13.92 91.87 13.69 91.19 135.84 55.76" style="fill: rgb(191, 153, 90); fill-rule: evenodd;"/>
    <polygon class="cls-233" points="135.98 56.21 136.18 56.92 14.03 92.35 13.83 91.64 135.98 56.21" style="fill: rgb(191, 153, 91); fill-rule: evenodd;"/>
    <polygon class="cls-234" points="136.12 56.69 136.32 57.37 14.17 92.81 13.97 92.13 136.12 56.69" style="fill: rgb(191, 154, 91); fill-rule: evenodd;"/>
    <polygon class="cls-235" points="136.23 57.15 136.46 57.85 14.31 93.29 14.12 92.58 136.23 57.15" style="fill: rgb(192, 154, 91); fill-rule: evenodd;"/>
    <polygon class="cls-235" points="136.38 57.63 136.57 58.31 14.46 93.74 14.23 93.03 136.38 57.63" style="fill: rgb(192, 154, 91); fill-rule: evenodd;"/>
    <polygon class="cls-236" points="136.52 58.08 136.72 58.79 14.57 94.19 14.37 93.52 136.52 58.08" style="fill: rgb(193, 155, 92); fill-rule: evenodd;"/>
    <polygon class="cls-236" points="136.66 58.53 136.86 59.24 14.71 94.68 14.51 93.97 136.66 58.53" style="fill: rgb(193, 155, 92); fill-rule: evenodd;"/>
    <polygon class="cls-236" points="136.77 59.02 137 59.7 14.85 95.13 14.65 94.45 136.77 59.02" style="fill: rgb(193, 155, 92); fill-rule: evenodd;"/>
    <polygon class="cls-237" points="136.91 59.47 137.11 60.18 14.99 95.61 14.77 94.9 136.91 59.47" style="fill: rgb(194, 156, 92); fill-rule: evenodd;"/>
    <polygon class="cls-238" points="137.06 59.95 137.25 60.63 15.11 96.07 14.91 95.36 137.06 59.95" style="fill: rgb(194, 156, 93); fill-rule: evenodd;"/>
    <polygon class="cls-239" points="137.2 60.41 137.4 61.12 15.25 96.52 15.05 95.84 137.2 60.41" style="fill: rgb(195, 156, 93); fill-rule: evenodd;"/>
    <polygon class="cls-240" points="137.31 60.86 137.54 61.57 15.39 97 15.19 96.29 137.31 60.86" style="fill: rgb(195, 157, 93); fill-rule: evenodd;"/>
    <polygon class="cls-240" points="137.45 61.34 137.65 62.02 15.53 97.45 15.34 96.78 137.45 61.34" style="fill: rgb(195, 157, 93); fill-rule: evenodd;"/>
    <polygon class="cls-241" points="137.59 61.8 137.79 62.5 15.65 97.94 15.45 97.23 137.59 61.8" style="fill: rgb(196, 158, 94); fill-rule: evenodd;"/>
    <polygon class="cls-241" points="137.74 62.28 137.93 62.96 15.79 98.39 15.59 97.68 137.74 62.28" style="fill: rgb(196, 158, 94); fill-rule: evenodd;"/>
    <polygon class="cls-242" points="137.85 62.73 138.08 63.44 15.93 98.84 15.73 98.16 137.85 62.73" style="fill: rgb(197, 158, 94); fill-rule: evenodd;"/>
    <polygon class="cls-243" points="137.99 63.18 138.19 63.89 16.07 99.33 15.87 98.62 137.99 63.18" style="fill: rgb(197, 159, 94); fill-rule: evenodd;"/>
    <polygon class="cls-244" points="138.13 63.67 138.33 64.35 16.19 99.78 15.99 99.1 138.13 63.67" style="fill: rgb(197, 159, 95); fill-rule: evenodd;"/>
    <polygon class="cls-245" points="138.27 64.12 138.47 64.83 16.33 100.26 16.13 99.55 138.27 64.12" style="fill: rgb(198, 159, 95); fill-rule: evenodd;"/>
    <polygon class="cls-246" points="138.39 64.6 138.61 65.28 16.47 100.72 16.27 100.01 138.39 64.6" style="fill: rgb(198, 160, 95); fill-rule: evenodd;"/>
    <polygon class="cls-247" points="138.53 65.06 138.73 65.76 16.61 101.17 16.41 100.49 138.53 65.06" style="fill: rgb(199, 160, 96); fill-rule: evenodd;"/>
    <polygon class="cls-247" points="138.67 65.51 138.87 66.22 16.72 101.65 16.53 100.94 138.67 65.51" style="fill: rgb(199, 160, 96); fill-rule: evenodd;"/>
    <polygon class="cls-248" points="138.81 65.99 139.01 66.67 16.87 102.1 16.67 101.42 138.81 65.99" style="fill: rgb(199, 161, 96); fill-rule: evenodd;"/>
    <polygon class="cls-249" points="138.95 66.44 139.15 67.15 17.01 102.59 16.81 101.88 138.95 66.44" style="fill: rgb(200, 161, 96); fill-rule: evenodd;"/>
    <polygon class="cls-250" points="139.07 66.93 139.27 67.61 17.15 103.04 16.95 102.33 139.07 66.93" style="fill: rgb(200, 161, 97); fill-rule: evenodd;"/>
    <polygon class="cls-251" points="139.21 67.38 139.41 68.09 17.29 103.49 17.07 102.81 139.21 67.38" style="fill: rgb(201, 162, 97); fill-rule: evenodd;"/>
    <polygon class="cls-251" points="139.35 67.83 139.55 68.54 17.41 103.97 17.21 103.27 139.35 67.83" style="fill: rgb(201, 162, 97); fill-rule: evenodd;"/>
    <polygon class="cls-251" points="139.49 68.31 139.69 69 17.55 104.43 17.35 103.75 139.49 68.31" style="fill: rgb(201, 162, 97); fill-rule: evenodd;"/>
    <polygon class="cls-252" points="139.61 68.77 139.81 69.48 17.69 104.91 17.49 104.2 139.61 68.77" style="fill: rgb(202, 163, 98); fill-rule: evenodd;"/>
    <polygon class="cls-252" points="139.75 69.25 139.95 69.93 17.83 105.36 17.6 104.66 139.75 69.25" style="fill: rgb(202, 163, 98); fill-rule: evenodd;"/>
    <polygon class="cls-253" points="139.89 69.7 140.09 70.41 17.94 105.82 17.75 105.14 139.89 69.7" style="fill: rgb(203, 163, 98); fill-rule: evenodd;"/>
    <polygon class="cls-254" points="140.03 70.16 140.23 70.87 18.09 106.3 17.89 105.59 140.03 70.16" style="fill: rgb(203, 164, 98); fill-rule: evenodd;"/>
    <polygon class="cls-255" points="140.15 70.64 140.34 71.32 18.23 106.75 18.03 106.07 140.15 70.64" style="fill: rgb(203, 164, 99); fill-rule: evenodd;"/>
    <polygon class="cls-256" points="140.29 71.09 140.49 71.8 18.37 107.23 18.14 106.53 140.29 71.09" style="fill: rgb(204, 164, 99); fill-rule: evenodd;"/>
    <polygon class="cls-257" points="140.43 71.58 140.63 72.25 18.48 107.69 18.28 106.98 140.43 71.58" style="fill: rgb(204, 165, 99); fill-rule: evenodd;"/>
    <polygon class="cls-258" points="140.57 72.03 140.77 72.74 18.62 108.14 18.43 107.46 140.57 72.03" style="fill: rgb(205, 165, 99); fill-rule: evenodd;"/>
    <polygon class="cls-259" points="140.68 72.48 140.91 73.19 18.77 108.62 18.57 107.92 140.68 72.48" style="fill: rgb(205, 165, 100); fill-rule: evenodd;"/>
    <polygon class="cls-260" points="140.82 72.96 141.02 73.64 18.91 109.08 18.68 108.4 140.82 72.96" style="fill: rgb(205, 166, 100); fill-rule: evenodd;"/>
    <polygon class="cls-261" points="140.97 73.42 141.16 74.13 19.02 109.56 18.82 108.85 140.97 73.42" style="fill: rgb(206, 166, 100); fill-rule: evenodd;"/>
    <polygon class="cls-261" points="141.11 73.9 141.31 74.58 19.16 110.01 18.96 109.3 141.11 73.9" style="fill: rgb(206, 166, 100); fill-rule: evenodd;"/>
    <polygon class="cls-262" points="141.22 74.35 141.45 75.06 19.3 110.47 19.11 109.79 141.22 74.35" style="fill: rgb(207, 167, 101); fill-rule: evenodd;"/>
    <polygon class="cls-262" points="141.36 74.81 141.56 75.52 19.45 110.95 19.25 110.24 141.36 74.81" style="fill: rgb(207, 167, 101); fill-rule: evenodd;"/>
    <polygon class="cls-262" points="141.51 75.29 141.7 76 19.56 111.4 19.36 110.72 141.51 75.29" style="fill: rgb(207, 167, 101); fill-rule: evenodd;"/>
    <polygon class="cls-263" points="141.65 75.74 141.85 76.45 19.7 111.88 19.5 111.17 141.65 75.74" style="fill: rgb(208, 168, 101); fill-rule: evenodd;"/>
    <polygon class="cls-264" points="141.76 76.22 141.99 76.9 19.84 112.34 19.64 111.66 141.76 76.22" style="fill: rgb(208, 168, 102); fill-rule: evenodd;"/>
    <polygon class="cls-265" points="141.9 76.68 142.1 77.39 19.98 112.82 19.79 112.11 141.9 76.68" style="fill: rgb(209, 168, 102); fill-rule: evenodd;"/>
    <polygon class="cls-266" points="142.04 77.16 142.24 77.84 20.1 113.27 19.9 112.56 142.04 77.16" style="fill: rgb(209, 169, 102); fill-rule: evenodd;"/>
    <polygon class="cls-266" points="142.19 77.61 142.38 78.32 20.24 113.73 20.04 113.05 142.19 77.61" style="fill: rgb(209, 169, 102); fill-rule: evenodd;"/>
    <polygon class="cls-267" points="142.3 78.07 142.53 78.78 20.38 114.21 20.18 113.5 142.3 78.07" style="fill: rgb(210, 169, 103); fill-rule: evenodd;"/>
    <polygon class="cls-268" points="142.44 78.55 142.64 79.23 20.52 114.66 20.32 113.98 142.44 78.55" style="fill: rgb(210, 170, 103); fill-rule: evenodd;"/>
    <polygon class="cls-269" points="142.58 79 142.78 79.71 20.64 115.14 20.44 114.44 142.58 79" style="fill: rgb(211, 170, 103); fill-rule: evenodd;"/>
    <polygon class="cls-270" points="142.72 79.48 142.92 80.16 20.78 115.6 20.58 114.89 142.72 79.48" style="fill: rgb(211, 170, 104); fill-rule: evenodd;"/>
    <polygon class="cls-271" points="142.87 79.94 143.06 80.65 20.92 116.05 20.72 115.37 142.87 79.94" style="fill: rgb(211, 171, 104); fill-rule: evenodd;"/>
    <polygon class="cls-272" points="142.98 80.39 143.18 81.1 21.06 116.53 20.86 115.82 142.98 80.39" style="fill: rgb(212, 171, 104); fill-rule: evenodd;"/>
    <polygon class="cls-272" points="143.12 80.87 143.32 81.55 21.2 116.99 20.98 116.31 143.12 80.87" style="fill: rgb(212, 171, 104); fill-rule: evenodd;"/>
    <polygon class="cls-273" points="143.26 81.33 143.46 82.03 21.32 117.47 21.12 116.76 143.26 81.33" style="fill: rgb(213, 172, 105); fill-rule: evenodd;"/>
    <polygon class="cls-273" points="143.41 81.81 143.6 82.49 21.46 117.92 21.26 117.21 143.41 81.81" style="fill: rgb(213, 172, 105); fill-rule: evenodd;"/>
    <polygon class="cls-274" points="143.52 82.26 143.72 82.97 21.6 118.38 21.4 117.69 143.52 82.26" style="fill: rgb(213, 173, 105); fill-rule: evenodd;"/>
    <polygon class="cls-275" points="143.66 82.72 143.86 83.42 21.74 118.86 21.52 118.15 143.66 82.72" style="fill: rgb(214, 173, 105); fill-rule: evenodd;"/>
    <polygon class="cls-276" points="143.8 83.2 144 83.88 21.86 119.31 21.66 118.63 143.8 83.2" style="fill: rgb(214, 173, 106); fill-rule: evenodd;"/>
    <polygon class="cls-277" points="143.94 83.65 144.14 84.36 22 119.79 21.8 119.08 143.94 83.65" style="fill: rgb(215, 174, 106); fill-rule: evenodd;"/>
    <polygon class="cls-277" points="144.06 84.13 144.25 84.81 22.14 120.25 21.94 119.54 144.06 84.13" style="fill: rgb(215, 174, 106); fill-rule: evenodd;"/>
    <polygon class="cls-277" points="144.2 84.59 144.4 85.29 22.28 120.7 22.05 120.02 144.2 84.59" style="fill: rgb(215, 174, 106); fill-rule: evenodd;"/>
    <polygon class="cls-278" points="144.34 85.04 144.54 85.75 22.39 121.18 22.2 120.47 144.34 85.04" style="fill: rgb(216, 175, 107); fill-rule: evenodd;"/>
    <polygon class="cls-278" points="144.48 85.52 144.68 86.2 22.54 121.64 22.34 120.95 144.48 85.52" style="fill: rgb(216, 175, 107); fill-rule: evenodd;"/>
    <polygon class="cls-279" points="144.59 85.97 144.82 86.68 22.68 122.12 22.48 121.41 144.59 85.97" style="fill: rgb(217, 175, 107); fill-rule: evenodd;"/>
    <polygon class="cls-280" points="144.74 86.46 144.94 87.14 22.82 122.57 22.59 121.86 144.74 86.46" style="fill: rgb(217, 176, 107); fill-rule: evenodd;"/>
    <polygon class="cls-281" points="144.88 86.91 145.08 87.62 22.93 123.02 22.73 122.34 144.88 86.91" style="fill: rgb(217, 176, 108); fill-rule: evenodd;"/>
    <polygon class="cls-282" points="145.02 87.36 145.22 88.07 23.07 123.51 22.88 122.8 145.02 87.36" style="fill: rgb(218, 176, 108); fill-rule: evenodd;"/>
    <polygon class="cls-283" points="145.13 87.85 145.36 88.53 23.22 123.96 23.02 123.28 145.13 87.85" style="fill: rgb(218, 177, 108); fill-rule: evenodd;"/>
    <polygon class="cls-284" points="145.28 88.3 145.47 89.01 23.36 124.44 23.16 123.73 145.28 88.3" style="fill: rgb(219, 177, 108); fill-rule: evenodd;"/>
    <polygon class="cls-285" points="145.42 88.78 145.62 89.46 23.47 124.89 23.27 124.19 145.42 88.78" style="fill: rgb(219, 177, 109); fill-rule: evenodd;"/>
    <polygon class="cls-286" points="145.56 89.23 145.76 89.94 23.61 125.35 23.41 124.67 145.56 89.23" style="fill: rgb(219, 178, 109); fill-rule: evenodd;"/>
    <polygon class="cls-287" points="145.67 89.69 145.9 90.4 23.75 125.83 23.56 125.12 145.67 89.69" style="fill: rgb(220, 178, 109); fill-rule: evenodd;"/>
    <polygon class="cls-287" points="145.81 90.17 146.01 90.85 23.9 126.28 23.7 125.6 145.81 90.17" style="fill: rgb(220, 178, 109); fill-rule: evenodd;"/>
    <polygon class="cls-288" points="145.96 90.62 146.15 91.33 24.01 126.77 23.81 126.06 145.96 90.62" style="fill: rgb(221, 179, 110); fill-rule: evenodd;"/>
    <polygon class="cls-288" points="146.1 91.11 146.3 91.79 24.15 127.22 23.95 126.51 146.1 91.11" style="fill: rgb(221, 179, 110); fill-rule: evenodd;"/>
    <polygon class="cls-288" points="146.21 91.56 146.44 92.27 24.29 127.67 24.09 126.99 146.21 91.56" style="fill: rgb(221, 179, 110); fill-rule: evenodd;"/>
    <polygon class="cls-289" points="146.35 92.01 146.55 92.72 24.43 128.15 24.24 127.45 146.35 92.01" style="fill: rgb(222, 180, 111); fill-rule: evenodd;"/>
    <polygon class="cls-289" points="146.49 92.49 146.69 93.17 24.55 128.61 24.35 127.93 146.49 92.49" style="fill: rgb(222, 180, 111); fill-rule: evenodd;"/>
    <polygon class="cls-290" points="146.64 92.95 146.84 93.66 24.69 129.09 24.49 128.38 146.64 92.95" style="fill: rgb(223, 180, 111); fill-rule: evenodd;"/>
    <polygon class="cls-291" points="146.78 93.43 146.98 94.11 24.83 129.54 24.63 128.84 146.78 93.43" style="fill: rgb(223, 181, 111); fill-rule: evenodd;"/>
    <polygon class="cls-292" points="146.89 93.88 147.09 94.59 24.97 130 24.77 129.32 146.89 93.88" style="fill: rgb(223, 181, 112); fill-rule: evenodd;"/>
    <polygon class="cls-293" points="147.03 94.34 147.23 95.05 25.11 130.48 24.89 129.77 147.03 94.34" style="fill: rgb(224, 181, 112); fill-rule: evenodd;"/>
    <polygon class="cls-294" points="147.18 94.82 147.37 95.5 25.23 130.93 25.03 130.25 147.18 94.82" style="fill: rgb(224, 182, 112); fill-rule: evenodd;"/>
    <polygon class="cls-295" points="147.32 95.27 147.51 95.98 25.37 131.41 25.17 130.71 147.32 95.27" style="fill: rgb(225, 182, 112); fill-rule: evenodd;"/>
    <polygon class="cls-296" points="147.43 95.75 147.63 96.44 25.51 131.87 25.31 131.16 147.43 95.75" style="fill: rgb(225, 182, 113); fill-rule: evenodd;"/>
    <polygon class="cls-297" points="147.57 96.21 147.77 96.92 25.65 132.32 25.43 131.64 147.57 96.21" style="fill: rgb(225, 183, 113); fill-rule: evenodd;"/>
    <polygon class="cls-298" points="147.71 96.66 147.91 97.37 25.77 132.8 25.57 132.09 147.71 96.66" style="fill: rgb(226, 183, 113); fill-rule: evenodd;"/>
    <polygon class="cls-298" points="147.85 97.14 148.05 97.82 25.91 133.26 25.71 132.58 147.85 97.14" style="fill: rgb(226, 183, 113); fill-rule: evenodd;"/>
    <polygon class="cls-299" points="147.97 97.6 148.17 98.31 26.05 133.74 25.85 133.03 147.97 97.6" style="fill: rgb(227, 184, 114); fill-rule: evenodd;"/>
    <polygon class="cls-299" points="148.11 98.08 148.31 98.76 26.19 134.19 25.96 133.48 148.11 98.08" style="fill: rgb(227, 184, 114); fill-rule: evenodd;"/>
    <polygon class="cls-299" points="148.25 98.53 148.45 99.24 26.31 134.67 26.11 133.97 148.25 98.53" style="fill: rgb(227, 184, 114); fill-rule: evenodd;"/>
    <polygon class="cls-300" points="148.39 99.01 148.59 99.69 26.45 135.13 26.25 134.42 148.39 99.01" style="fill: rgb(228, 185, 114); fill-rule: evenodd;"/>
    <polygon class="cls-301" points="148.51 99.47 148.73 100.18 26.59 135.58 26.39 134.9 148.51 99.47" style="fill: rgb(228, 185, 115); fill-rule: evenodd;"/>
    <polygon class="cls-302" points="148.65 99.92 148.85 100.63 26.73 136.06 26.5 135.35 148.65 99.92" style="fill: rgb(229, 185, 115); fill-rule: evenodd;"/>
    <polygon class="cls-303" points="148.79 100.4 148.99 101.08 26.84 136.52 26.65 135.84 148.79 100.4" style="fill: rgb(229, 186, 115); fill-rule: evenodd;"/>
    <polygon class="cls-303" points="148.93 100.86 149.13 101.56 26.99 137 26.79 136.29 148.93 100.86" style="fill: rgb(229, 186, 115); fill-rule: evenodd;"/>
    <polygon class="cls-304" points="149.05 101.34 149.27 102.02 27.13 137.45 26.93 136.74 149.05 101.34" style="fill: rgb(230, 187, 116); fill-rule: evenodd;"/>
    <polygon class="cls-304" points="149.19 101.79 149.39 102.5 27.27 137.91 27.07 137.22 149.19 101.79" style="fill: rgb(230, 187, 116); fill-rule: evenodd;"/>
    <polygon class="cls-305" points="149.33 102.25 149.53 102.95 27.38 138.39 27.18 137.68 149.33 102.25" style="fill: rgb(231, 187, 116); fill-rule: evenodd;"/>
    <polygon class="cls-306" points="149.47 102.73 149.67 103.41 27.52 138.84 27.33 138.16 149.47 102.73" style="fill: rgb(231, 188, 116); fill-rule: evenodd;"/>
    <polygon class="cls-307" points="149.58 103.18 149.81 103.89 27.67 139.32 27.47 138.61 149.58 103.18" style="fill: rgb(231, 188, 117); fill-rule: evenodd;"/>
    <polygon class="cls-308" points="149.73 103.66 149.92 104.34 27.81 139.78 27.61 139.07 149.73 103.66" style="fill: rgb(232, 188, 117); fill-rule: evenodd;"/>
    <polygon class="cls-309" points="149.87 104.12 150.07 104.83 27.92 140.23 27.72 139.55 149.87 104.12" style="fill: rgb(232, 189, 117); fill-rule: evenodd;"/>
    <polygon class="cls-310" points="150.01 104.57 150.21 105.28 28.06 140.71 27.86 140 150.01 104.57" style="fill: rgb(233, 189, 118); fill-rule: evenodd;"/>
    <polygon class="cls-310" points="150.12 105.05 150.35 105.73 28.2 141.16 28.01 140.49 150.12 105.05" style="fill: rgb(233, 189, 118); fill-rule: evenodd;"/>
    <polygon class="cls-311" points="150.26 105.51 150.46 106.21 28.35 141.65 28.15 140.94 150.26 105.51" style="fill: rgb(233, 190, 118); fill-rule: evenodd;"/>
    <polygon class="cls-312" points="150.41 105.99 150.6 106.67 28.46 142.1 28.26 141.39 150.41 105.99" style="fill: rgb(234, 190, 118); fill-rule: evenodd;"/>
    <polygon class="cls-313" points="150.55 106.44 150.75 107.15 28.6 142.55 28.4 141.87 150.55 106.44" style="fill: rgb(234, 190, 119); fill-rule: evenodd;"/>
    <polygon class="cls-314" points="150.66 106.89 150.89 107.6 28.74 143.04 28.55 142.33 150.66 106.89" style="fill: rgb(235, 191, 119); fill-rule: evenodd;"/>
    <polygon class="cls-314" points="150.8 107.38 151 108.06 28.89 143.49 28.69 142.81 150.8 107.38" style="fill: rgb(235, 191, 119); fill-rule: evenodd;"/>
    <polygon class="cls-314" points="150.94 107.83 151.14 108.54 29 143.97 28.8 143.26 150.94 107.83" style="fill: rgb(235, 191, 119); fill-rule: evenodd;"/>
    <polygon class="cls-315" points="151.09 108.31 151.28 108.99 29.14 144.43 28.94 143.72 151.09 108.31" style="fill: rgb(236, 192, 120); fill-rule: evenodd;"/>
    <polygon class="cls-315" points="151.23 108.77 151.43 109.47 29.28 144.88 29.08 144.2 151.23 108.77" style="fill: rgb(236, 192, 120); fill-rule: evenodd;"/>
    <polygon class="cls-316" points="151.34 109.22 151.54 109.93 29.42 145.36 29.23 144.65 151.34 109.22" style="fill: rgb(237, 192, 120); fill-rule: evenodd;"/>
    <polygon class="cls-317" points="151.48 109.7 151.68 110.38 29.57 145.81 29.34 145.13 151.48 109.7" style="fill: rgb(237, 193, 120); fill-rule: evenodd;"/>
    <polygon class="cls-318" points="151.63 110.15 151.82 110.86 29.68 146.3 29.48 145.59 151.63 110.15" style="fill: rgb(237, 193, 121); fill-rule: evenodd;"/>
    <polygon class="cls-319" points="151.77 110.64 151.97 111.32 29.82 146.75 29.62 146.04 151.77 110.64" style="fill: rgb(238, 193, 121); fill-rule: evenodd;"/>
    <polygon class="cls-320" points="151.88 111.09 152.08 111.8 29.96 147.2 29.76 146.52 151.88 111.09" style="fill: rgb(238, 194, 121); fill-rule: evenodd;"/>
    <polygon class="cls-321" points="152.02 111.54 152.22 112.25 30.1 147.69 29.88 146.98 152.02 111.54" style="fill: rgb(239, 194, 121); fill-rule: evenodd;"/>
    <polygon class="cls-322" points="152.16 112.03 152.36 112.71 30.22 148.14 30.02 147.46 152.16 112.03" style="fill: rgb(239, 194, 122); fill-rule: evenodd;"/>
    <polygon class="cls-323" points="152.31 112.48 152.5 113.19 30.36 148.62 30.16 147.91 152.31 112.48" style="fill: rgb(239, 195, 122); fill-rule: evenodd;"/>
    <polygon class="cls-324" points="152.42 112.96 152.62 113.64 30.5 149.07 30.3 148.37 152.42 112.96" style="fill: rgb(240, 195, 122); fill-rule: evenodd;"/>
    <polygon class="cls-324" points="152.56 113.41 152.76 114.12 30.64 149.53 30.42 148.85 152.56 113.41" style="fill: rgb(240, 195, 122); fill-rule: evenodd;"/>
    <polygon class="cls-325" points="152.7 113.87 152.9 114.58 30.76 150.01 30.56 149.3 152.7 113.87" style="fill: rgb(241, 196, 123); fill-rule: evenodd;"/>
    <polygon class="cls-325" points="152.84 114.35 153.04 115.03 30.9 150.46 30.7 149.78 152.84 114.35" style="fill: rgb(241, 196, 123); fill-rule: evenodd;"/>
    <polygon class="cls-325" points="152.96 114.8 153.18 115.51 31.04 150.94 30.84 150.24 152.96 114.8" style="fill: rgb(241, 196, 123); fill-rule: evenodd;"/>
    <polygon class="cls-326" points="153.1 115.28 153.3 115.97 31.18 151.4 30.95 150.69 153.1 115.28" style="fill: rgb(242, 197, 123); fill-rule: evenodd;"/>
    <polygon class="cls-327" points="153.24 115.74 153.44 116.45 31.29 151.85 31.1 151.17 153.24 115.74" style="fill: rgb(242, 197, 124); fill-rule: evenodd;"/>
    <polygon class="cls-328" points="153.38 116.19 153.58 116.9 31.44 152.33 31.24 151.63 153.38 116.19" style="fill: rgb(243, 197, 124); fill-rule: evenodd;"/>
    <polygon class="cls-329" points="153.5 116.67 153.72 117.35 31.58 152.79 31.38 152.11 153.5 116.67" style="fill: rgb(243, 198, 124); fill-rule: evenodd;"/>
    <polygon class="cls-329" points="153.64 117.13 153.84 117.84 31.72 153.27 31.52 152.56 153.64 117.13" style="fill: rgb(243, 198, 124); fill-rule: evenodd;"/>
    <polygon class="cls-330" points="153.78 117.61 153.98 118.29 31.83 153.72 31.64 153.01 153.78 117.61" style="fill: rgb(244, 198, 125); fill-rule: evenodd;"/>
    <polygon class="cls-331" points="153.92 118.06 154.12 118.77 31.98 154.18 31.78 153.5 153.92 118.06" style="fill: rgb(244, 199, 125); fill-rule: evenodd;"/>
    <polygon class="cls-332" points="154.03 118.52 154.26 119.22 32.12 154.66 31.92 153.95 154.03 118.52" style="fill: rgb(245, 199, 125); fill-rule: evenodd;"/>
    <polygon class="cls-333" points="154.18 119 154.38 119.68 32.26 155.11 32.06 154.43 154.18 119" style="fill: rgb(245, 199, 126); fill-rule: evenodd;"/>
    <polygon class="cls-334" points="154.32 119.45 154.52 120.16 32.37 155.59 32.17 154.88 154.32 119.45" style="fill: rgb(245, 200, 126); fill-rule: evenodd;"/>
    <polygon class="cls-335" points="154.46 119.93 154.66 120.61 32.51 156.05 32.31 155.34 154.46 119.93" style="fill: rgb(246, 200, 126); fill-rule: evenodd;"/>
    <polygon class="cls-335" points="154.57 120.39 154.8 121.1 32.66 156.5 32.46 155.82 154.57 120.39" style="fill: rgb(246, 200, 126); fill-rule: evenodd;"/>
    <polygon class="cls-336" points="154.72 120.87 154.91 121.55 32.8 156.98 32.6 156.27 154.72 120.87" style="fill: rgb(247, 201, 127); fill-rule: evenodd;"/>
    <polygon class="cls-336" points="154.86 121.32 155.06 122.03 32.91 157.44 32.71 156.76 154.86 121.32" style="fill: rgb(247, 201, 127); fill-rule: evenodd;"/>
    <polygon class="cls-337" points="155 121.78 155.2 122.48 33.05 157.92 32.85 157.21 155 121.78" style="fill: rgb(247, 202, 127); fill-rule: evenodd;"/>
    <polygon class="cls-338" points="155.14 122.26 155.34 122.94 33.19 158.37 32.99 157.69 155.14 122.26" style="fill: rgb(248, 202, 127); fill-rule: evenodd;"/>
    <polygon class="cls-339" points="155.25 122.71 155.45 123.42 33.34 158.85 33.14 158.15 155.25 122.71" style="fill: rgb(248, 202, 128); fill-rule: evenodd;"/>
    <polygon class="cls-340" points="155.4 123.19 155.59 123.87 33.48 159.31 33.25 158.6 155.4 123.19" style="fill: rgb(249, 203, 128); fill-rule: evenodd;"/>
    <polygon class="cls-340" points="155.54 123.65 155.74 124.36 33.59 159.76 33.39 159.08 155.54 123.65" style="fill: rgb(249, 203, 128); fill-rule: evenodd;"/>
    <polygon class="cls-340" points="155.68 124.1 155.88 124.81 33.73 160.24 33.53 159.53 155.68 124.1" style="fill: rgb(249, 203, 128); fill-rule: evenodd;"/>
    <polygon class="cls-341" points="155.79 124.58 155.99 125.26 33.87 160.7 33.68 160.02 155.79 124.58" style="fill: rgb(250, 204, 129); fill-rule: evenodd;"/>
    <polygon class="cls-341" points="155.93 125.04 156.13 125.75 34.02 161.18 33.79 160.47 155.93 125.04" style="fill: rgb(250, 204, 129); fill-rule: evenodd;"/>
    <polygon class="cls-342" points="156.08 125.52 156.27 126.2 34.13 161.63 33.93 160.92 156.08 125.52" style="fill: rgb(251, 204, 129); fill-rule: evenodd;"/>
    <polygon class="cls-343" points="156.22 125.97 156.42 126.68 34.27 162.09 34.07 161.41 156.22 125.97" style="fill: rgb(251, 205, 129); fill-rule: evenodd;"/>
    <polygon class="cls-344" points="156.33 126.42 156.53 127.13 34.41 162.57 34.21 161.86 156.33 126.42" style="fill: rgb(251, 205, 130); fill-rule: evenodd;"/>
    <polygon class="cls-345" points="156.47 126.91 156.67 127.59 34.55 163.02 34.33 162.34 156.47 126.91" style="fill: rgb(252, 205, 130); fill-rule: evenodd;"/>
    <polygon class="cls-346" points="156.61 127.36 156.81 128.07 34.67 163.5 34.47 162.79 156.61 127.36" style="fill: rgb(252, 206, 130); fill-rule: evenodd;"/>
    <polygon class="cls-347" points="156.76 127.84 156.95 128.52 34.81 163.96 34.61 163.25 156.76 127.84" style="fill: rgb(253, 206, 130); fill-rule: evenodd;"/>
    <polygon class="cls-348" points="156.87 128.3 157.1 129 34.95 164.41 34.75 163.73 156.87 128.3" style="fill: rgb(253, 206, 131); fill-rule: evenodd;"/>
    <polygon class="cls-349" points="157.01 128.75 157.21 129.46 35.09 164.89 34.87 164.18 157.01 128.75" style="fill: rgb(253, 207, 131); fill-rule: evenodd;"/>
    <polygon class="cls-350" points="157.15 129.23 157.35 129.91 35.21 165.34 35.01 164.66 157.15 129.23" style="fill: rgb(254, 207, 131); fill-rule: evenodd;"/>
    <polygon class="cls-350" points="157.29 129.69 157.18 129.34 35.06 164.78 35.15 165.12 157.29 129.69" style="fill: rgb(254, 207, 131); fill-rule: evenodd;"/>
  </g>
</svg>